/* XPM */
static char *result[] = {
/* columns rows colors chars-per-pixel */
"64 64 239 2 ",
"   c #361C0C",
".  c #3A2314",
"X  c #45230C",
"o  c #5D2609",
"O  c #5C3307",
"+  c #4B2C15",
"@  c #462A18",
"#  c #542E18",
"$  c #58361B",
"%  c #653608",
"&  c #783806",
"*  c #72320F",
"=  c #64381A",
"-  c #5D3124",
";  c #5B3D27",
":  c #683427",
">  c #723A2D",
",  c #703B36",
"<  c #007F00",
"1  c #32710D",
"2  c #367C0D",
"3  c #5B4B1B",
"4  c #585718",
"5  c #7A410A",
"6  c #63431D",
"7  c #63491D",
"8  c #784519",
"9  c #64531D",
"0  c #68511D",
"q  c #775717",
"w  c #4B6B15",
"e  c #586718",
"r  c #477B14",
"t  c #517615",
"y  c #6C6919",
"u  c #65751C",
"i  c #6C4522",
"p  c #6A4A24",
"a  c #744B26",
"s  c #795229",
"d  c #704632",
"f  c #785636",
"g  c #863B04",
"h  c #813D37",
"j  c #894508",
"k  c #964B06",
"l  c #9A5109",
"z  c #864B16",
"x  c #8F5316",
"c  c #A14907",
"v  c #A35405",
"b  c #A95809",
"n  c #B35907",
"m  c #A65915",
"M  c #B55F11",
"N  c #8D6614",
"B  c #B96409",
"V  c #B76518",
"C  c #AD7219",
"Z  c #89502D",
"A  c #985B25",
"S  c #89443C",
"D  c #965437",
"F  c #A65D2B",
"G  c #956535",
"H  c #A76327",
"J  c #B76B22",
"K  c #B57431",
"L  c #C55701",
"P  c #C76B09",
"I  c #C4690D",
"U  c #DD6C04",
"Y  c #C56C17",
"T  c #CA7317",
"R  c #D77313",
"E  c #D67618",
"W  c #F27B04",
"Q  c #EC7E1C",
"!  c #C87825",
"~  c #D57427",
"^  c #E77D27",
"/  c #F07F26",
"(  c #8E4F42",
")  c #AE5C4A",
"_  c #8E6849",
"`  c #AC724E",
"'  c #C5754C",
"]  c #D87E53",
"[  c #018401",
"{  c #0C8403",
"}  c #018B02",
"|  c #0C8B03",
" . c #138604",
".. c #1A8704",
"X. c #148B04",
"o. c #1C8D05",
"O. c #039302",
"+. c #0B9803",
"@. c #149404",
"#. c #1C9305",
"$. c #149B04",
"%. c #1C9B06",
"&. c #238D06",
"*. c #2A8708",
"=. c #248D08",
"-. c #2A8E09",
";. c #368B0D",
":. c #239306",
">. c #299407",
",. c #239B07",
"<. c #299B07",
"1. c #259408",
"2. c #2C9409",
"3. c #259C08",
"4. c #2C9B09",
"5. c #33950B",
"6. c #3B960D",
"7. c #349B0B",
"8. c #3B9C0D",
"9. c #3C8911",
"0. c #3E9511",
"q. c #14A405",
"w. c #1BA306",
"e. c #23A207",
"r. c #28A807",
"t. c #26A308",
"y. c #2CA309",
"u. c #2CAB09",
"i. c #34A40B",
"p. c #3CA30D",
"a. c #34AB0B",
"s. c #3CAB0D",
"d. c #2DB10A",
"f. c #34B20B",
"g. c #3CB20D",
"h. c #41960F",
"j. c #419D0F",
"k. c #478713",
"l. c #538816",
"z. c #449411",
"x. c #4D9215",
"c. c #449D10",
"v. c #4A9C13",
"b. c #569717",
"n. c #42A40F",
"m. c #42AB0F",
"M. c #49AC0F",
"N. c #42B20F",
"B. c #44B70F",
"V. c #45A410",
"C. c #4AA411",
"Z. c #45AB10",
"A. c #4BAB11",
"S. c #53A614",
"D. c #5CA517",
"F. c #53AC14",
"G. c #5AAC16",
"H. c #45B310",
"J. c #4BB311",
"K. c #45BA10",
"L. c #4CBA11",
"P. c #53B314",
"I. c #5AB415",
"U. c #54BA14",
"Y. c #5BBB15",
"T. c #65AA1A",
"R. c #62B917",
"E. c #4EC113",
"W. c #56C315",
"Q. c #5CC216",
"!. c #63C618",
"~. c #D6860C",
"^. c #CD861B",
"/. c #D48818",
"(. c #D5911A",
"). c #FF8F0A",
"_. c #E78919",
"`. c #F48519",
"'. c #E8951B",
"]. c #FC971B",
"[. c #FCAA1D",
"{. c #FDB71D",
"}. c #D58926",
"|. c #CB8536",
" X c #D68838",
".X c #EB8928",
"XX c #F58827",
"oX c #E4972D",
"OX c #FE962B",
"+X c #EB8732",
"@X c #F88838",
"#X c #E69732",
"$X c #FD9432",
"%X c #F99736",
"&X c #EAA12E",
"*X c #FEA529",
"=X c #FFB726",
"-X c #FFAA37",
";X c #FEA53C",
":X c #FFB537",
">X c #B88559",
",X c #B58C64",
"<X c #CA8547",
"1X c #CF8F50",
"2X c #E38A4F",
"3X c #FC8C43",
"4X c #E89747",
"5X c #FA9846",
"6X c #FC9A5A",
"7X c #DBA045",
"8X c #E7A446",
"9X c #FDA948",
"0X c #FFB34B",
"qX c #FEB448",
"wX c #FDAA58",
"eX c #FFB959",
"rX c #CA9767",
"tX c #E19F60",
"yX c #FC9D61",
"uX c #D4A776",
"iX c #FFA967",
"pX c #F3AB6F",
"aX c #FCB767",
"sX c #FEB475",
"dX c #FFC159",
"fX c #FEC46A",
"gX c #FEC679",
"hX c #FFD77D",
"jX c #DFB68A",
"kX c #E6B886",
"lX c #FCB884",
"zX c #FEC686",
"xX c #FACA94",
"cX c #FED199",
"vX c #FFCDA5",
"bX c #FEDAA7",
"nX c #FDE5B7",
"mX c #FDEEC6",
"MX c #FCFDE5",
/* pixels */
"Y.U.#.8.J.7.w V.a.i.Z.%...s.i.I.Z.6.J.m.s.,.s.J.i.p.2.p.V.4.p.A.v.U.,.J.i.r.P.Z.A.7.i.<.#.2.7.I.C.n.n.*.-.,.a.y.1.5.8.8.s.o.2.y.",
"Z.Z.m.p.5.5.c.Z.4.o.7.4.=.y.u.8.V.,.4.p.M.p.1.6.2.i.8.:.Z.s.7.8.c.C.2.P.a.a.J.m.8.p.i.:.n.C.8.P.8.a.p.b.8.1.7.4.8.2.o.a.y.2.2.o.",
"L.u.a.:.-.A.s.Z.8.O.4.A.p.p.p.%.$.e.:.4.C.8.&.8.<.A.A.8.i.C.8.,.4.8.c.A.5.j.M.,.3.+.4.4.n.7.m.n.7.1.5.L.S.7.V.Z.p.i.[ 4.,.4.#.1.",
"J.7.f.o.<.H.y.z.6.O.A.A.A.p.s.:.r.X.2.5.C.p.%.a.g.4.j.7.2.A.7.#.Z.7.A.,.s.5.8.J.<.| -.2.M.} m.m.4.p.,.A.U.s.8.A.Z.4.5.a.| p.A.5.",
"j.A.P.7.m.2.4.P.8.} C.Q.C.2.p.p.C.O.m.o.8.7.%.i.s.#.h.1.o.m.M.:.V.y.C.$.U.Y.p.U.-.N.p.s.m.@.a.P.1.J.a.0.P.4.2.U.K.t.p.4.,.5.A.8.",
"p.p.S.i.<.5.s.I.Z.V.p.!.p.o.8.8.C.&.A.8.,.3.s.8.8.#.C.n.B.A.s.o.2.i.8.&.G.!.J.Z.m.U.N.u.s.,.4.M.H.s.S.8.c.<.o.I.2.=.Z.5.X.u.Z.r.",
"r.7.i.j.:.f.g.C.F.8.J.J.p.C.P.2.Z.4.2.Z.1.y.L.P.Z.1.A.R.L.n.7.y.8.p.V.i.V.F.A.Z.j.U.P.#.1.o.2.6.V.y.Z.b.v.a.5.A.p.y.A.p.,.d.s.4.",
",.N.>.m.J.K.p.p.c.p.s.c.8.8.G.-.Z.a.4.H.:.i.a.V.A.3.n.R.I.2.#.w.a.A.V.Z.i.8.8.-.i.U.F.C.p.n.s.s.V.V.i.2 C.V.7.J.g.f.p.J.A.$.y.p.",
"6.V.s.f.Q.H.C.c.4.F.Z.a.A.Z.C.g.7.2.a.s.5.5.7.P.8.t.i.V.J.6.,.p.t.H.N.g.:.>.n.B.L.o.n.S.R.G.s.L.I.c.6.<.m.n.2.C.V.-.$.J.C.:.A.j.",
"A.a.%.,.V.C.V.Z.y.A.C.w.C.7.s.f.i.j.p.6.C.Z.7.Z.&.o.8.n.F.8.i.C.1.P.V.p.<.C.n.P.Y.e.<.n.F.J.p.i.U.p.n.6.c.m.4.,.Z.s.1.6.F.M.E.p.",
"g.0.{ 4.4.V.7.V.8.4.V.5.A.V.C.p.#.o.n.C.K.L.-.5.i.,.H.Z.C.c.4.P.A.A.p.V.U.m.R.n.n.e.p.7.7.j.m.%.4.p.7.4.8.>.} +.A.U.Z.6.C.s.u.i.",
"a.p.J.s.V.V.4.c.7.f.g.s.L.H.H.V.-.;.V.A.a.F.X.e.H.a.i.V.i.4.=.a.Z.c.H.Z.P.d.G.o.p.r.4.F.n.5.j.O.6.V.#.#.8.o. .| F.F.P.I.C.m.o.2.",
"s.7.F.H.7.A.J.6.X.J.s.H.p.i.p.c.A.U.C.p.n.C.i.g.<.6.o.#.7.t.=.2.2.2.n.M.n.p.N.o.1.e.,.s.H.3.X.&.8.8.6.i.m.4.:.p.C.m.M.n.C.p.y.>.",
"8.V.C.A.p.5.p.8.7.8.8.V.s.1.<.i.N.n.7.J.U.Z.2.3.2.Z.a.X.p.p.2.i.s.p.p.&.n.7.7.&.....y.4.n.5.n.6.8.j.p.Z.1.:.#.J.m.s.7.1.C.c.u.4.",
"V.Z.F.s.i.A.5.C.z.5.p.7.i.r.1.g.g.@.7.F.p.p.7.5.p.U.a.&.f.x.y N N q e 1 c.6.,.>.8.5.4.i.7.i.v.z.P.P.a.7.a.g.t.p.Z.6.y.r.T.D.i.i.",
"i.w.8.4.:.p.w.p.n.1 z.Z.| 2.5.p.p.>.A.C.2.Z.A.s.A.V.5.*.N M B M b m > 6 9 *.%.X.Y.A.:.i.a.H.%.F.Q.I.8.%.3.i.5.a.n.2.N.P.F.S.a.p.",
"A.Z.#.n.5.Z.m.N.Z.b.5.F.#.-.V.Z.2.-.p.a.a.W.I.a.i.8.k.N l 5 c L L L n l 8 p k.2.V.s.a.7.| o.u.P.H.H.V.8.o.| A.n.2.o.c.I.U.a.2.s.",
"s.C.6.C.5.n.m.i.A.V.t.b.c.e.a.2.c.Z.7.8.5.m.m.a.s.;.A z .     O n L L L b 8 i l.A.J.i.A.7.[ y.H.A.+.P.n.m.p.m.n.s.M.2.7.A.5.} p.",
"1.p.F.F.8.p.g.>.9.p.5.p.5.%.| } H.A.o.j.5.7.%.i.F.N z + 8 m J V R U U U P T A 4 F.L.4.h.M.5.8.4.P.a.Z.5.p.C.2.A.a.L.m.,.C.A.5.c.",
"7.p.p.J.#.4.2.&.c.u.7.s.1.2.A.H.g.Z...c.y.A.2.y.u H ` 4X$X$X$XhXfXQ W ].oX.X1Xs e 5.j.Z.g.m.Z.5.Z.A.i.u.C.8.8.6.1.5.C.y.a.J.,.8.",
"J.7.J.m.=.K.m.7.p.y.s.Z.P.q.F.W.i.J.| 8.p.m.&.9.A tXaXwXbXzX$XeXqX].).*X*X].qX1X= r A.4.p.L.P.8.>.m.i.O.p.m.P.2.p.>.8.7.#.m.| X.",
"} a.Y.8.m.B.B.Q.m.p.Z.7.6.&.7.a.&.p.@.V.G.5.o.y >XzXeXnXMXnX%XoX^.T ^./.~.'.;XaXG 9 c.Z.a.A.A.F.>.O.m.h.} r.Z.:.m.C.,.w.5.s.6.&.",
"5.X.C.-.i.g.B.A.p.p.A.<.} p.5.y.8.i.i.F.P.4.9.Z kXgXeXmXMXcX;X&X^.N N j N C N K rXp 2 p.p.V.s.F.8.{ 7.G.h.t.5.n.n.A.,.u.s.m.i.P.",
"Y.} 8.4.p.A.,.8.A.p.8.%.p.!.,.y.y.a.1.L.J.t.e >XcXsX0XbXnX9X;XqX:X=X{.(.C oXq $ p d 4 F.V.a.s.V.y.#.n.F.N.i.4.f.8.7.y.U.i.7.f.n.",
"n.5.&.7.Q.p.A.V.Z.p.i.7.C.S.h.2.n.y.7.p.8.6.s jXzXfXgXeX;XqX9X;X-X0X=X{.{.~.^.6 + @ 9 T.n.%.8.A.u.7.I.A.5.p.p.p.a.| 2.S.n.7.n.j.",
"Z.I.i.a.F.Z.Y.Z.I.U.g.C.F.s.s.,.:.%.8.p.w.w _ cXzXfXmXfXqX0XqX;XOX*X[.[.=X[.'.q @ @ ; u 8.<.Z.Z.p.8.i.A.A.s.=.<.a.X.4.A.j.s.>.:.",
"c.J.Z.U.8.8.C.V.V.A.1.c.v.o.y.4.o.N.B.8.} 3 uXcXfXdXfXeX0X0XqX%XOXOX:X=X=X[.]..Xs . @ 9 h.p.i.y.Z.g.,.a.a.5.3.y.4.y.>.5.n.p.u.u.",
"8.F.c.C.5.o.2.A.I.K.%.C.m.i.n.Y.6.Z.P.i.1 f xXzXfXdXdXdX0XqX;XXXXXOX*X-X=X*X'.'.wXf . p k.&.s.m.5.p.%.t.y.8.5.@.4.5.K.p.p.!.m.p.",
"p.v.p.t.@.#.8.7.P.Z.@.Z.p.#.,.P.8.F.A.a.u ` cXgXeX8X7XqXqX;X$XOXOXOX*X-X=X&X(.(.%XpXp $ e t.7.F.7.8.} X.2.S.-.1.i.p.E.P.A.n.C.8.",
"7.,.H.7.2.2.J.a.p.V.#.2.2.s.3.i.k.8.5.j.4 uXuX_ = s |.9X-X$X.X! J H m }.:X&X(./.#XaXuX; 9 m.P.!.Z.Z.C.7.%.C.8.<.5.a.H.C.M.M.5.,.",
"8.i.7.A.A.1.p.p.r.H.C.#.7.4.6.e.6.2 8.l.p f . $ K 9X5X|.A = + > @ 8 T OX*X(.(.^. XwXzX>X6 -.C.2.V.s.G.R.7.Z.s.d.%.2.Z.L.I.p.2.1.",
"i.J.F.Z.V.,.%.6.I.p.Z.Z.V.6.8.O.m.g.6.u - . d 4X%XH : $ + @ # 8 J XX$XOX]._.^.^.}.9XsXxXf r 6.Z.J.y.p.S.V.H.f.+.5.5.H.P.R.7.7.y.",
"p.n.A.p.a.5.$.q.S.V.a.!.n.>.C.< y.a.7.4 X _ pX' , , ( : : : F +X+X%XXXQ `.R R /.^.5XaXxX` w 2.p.4.4.i.5.s.s.2.< 0.p.Z.7.G.C.6.=.",
"8.C.Z.V.4.4.} q.a.7.7.A.C.$.m.J.4.8.p.3 _ gX` , , ` ] ( ] 2X3X3X+X+XQ %XpX XT T T %XwXlX,X4 2.:.8.8.n.U.J.7...6.%.a.s.y.p.P.s.2.",
"j.8.H.7.8.Z.| 5.n.m.n.r.G.j.t.U.t.L.2 6 jX` : , S S ( ' pXpXsX3X3X3XXXzXxX1X! P B E 4XpXrX3 *.7.5.j.S.U.A.8.i.F.L.J.y.3.%.C.p.8.",
"C.O.i.4.p.p.1.2.F.n.m.a.U.G.<.h.8.V.k.s ,X- > , S S ) wXiXvXnXsX@XXX+XxXlX1X|.I B B K tXuXp 9.7.4.<.m.A.C.2.y.C.L.u.Z.1.1.Z.c.8.",
"A.#.<.&.3.4.V.H.J.5.8.a.a.s.Z.X.2.7.b.d ; - , h S ) pXiXlXmXvXyX@X/ XXsXpX1X|.B B v b <XrXa S.Y.p.4.p.M.R.A.<.7.<.} g.n.A.a.s.n.",
"B.y.:.V.:.a.s.L.m.A.A.u.o.6.Z.5.3.s.x.= @ - > h ( pXaXiXlXvXlX6X@X@XQ %X1X|.T B n c k K ` 6 6.g.7.J.F.m.P.C.7.p.&.:.c.F.p.O.4.g.",
"a.n.a.c.z.s.y.s.Z.Z.J.e.3.6.c.y.#.7.b.3 # - > h 1XaXaXlXpXyXyXyX3X@XXXR P I ! b v k g F A 7 V.u.,.7.C.+.P.m.7.p.1.p.F.F.2.o.2.A.",
"6.i.H.5.V.a.2.<.7.C.A.y.$.5.V.i.p.7.k.= @ - : D 6XwXwXlXpXyX6XyX3X@X^ Y B B B v k g g j * 0 i.5.6.J.r...s.m.#.i.H.<.6.a.i.4.i.C.",
"i.%.X.7.,.,.i.2.-.1.8.5.X.s.m.y.J.7.V.9 # # - ' 9X5XwXiXiXiX` K ] / ^ Y V B b l k j g g * y 2.1.J.m.V.7.+.q.[ 7.U.r.o.2.7.H.1.8.",
"K.i.{ u.3...a.H.=.8.2.1.o.p.N.5.8.p.Z.u $ + - ^ 6X5XwXeXaXiX6XD : z m F V b b k j n n & = r Z.p.V.6.A.<.1.} 6.m.J.a.P.4.a.Z.i.H.",
"I.A.o.f.7.7.u.3.a.A.7.s.p.2.i.i.p.2.A.k.6 + z R / $X0XeXdXeX0X3XA * % * 5 5 5 5 v XXM o p p.n.p.Z.C.V.>.6.8.S.Z.2.g.Y.5.y.V.8.Y.",
"S.k.#.n.g.s.t.7.A.#.y.A.A.q.a.<.S.0.0.p.4 - g I R XXOX-X0X9X5X@X~ x % % O % % % E E O # t s.Z.8.J.5.7.i.m.n.V.C.z.Z.j.7.,.7.5.C.",
"n.m.8.C.7.j.*.m.m.o.i.0.c.p.i.<.i.k.7.H.9.i x Y I R XXXX$X3X/ ^ Y V z % % % O l .X& X 9 =.5.p.>.-.8.a.E.Z.0.%.i.J.s.2.4.5.b.8.A.",
"s.s.p.7.#.m.>.4.n.n.z.4.@.J.y.1.y.0.Z.Z.A.t p V Y E R `.XX/ ^ ~ M z l l & O 5 5 & X 6 2 5.m.8.2.8.M.f.4.F.J.y.} s.%.e.#.s.v.k.Z.",
"i.I.a.y.&.1.6.4.C.8.o.$.p.7.0.g.y.V.y.p.5.V.e i J E I P R E T Y M l * 5 j k V O X ; 1 t.a.:.h.m.P.u.7.@.P.Z.7.p.4. .| $.L.,.V.S.",
"y.U.F.&.7.C.n.7.4.y.>.4.s.P.A.V.o.7.s.8.p.5.C.w 7 A Y I B B B M m c j O % j & o 6 r :.,.Y.6.C.>.G.7.p.Y.A.8.7.A.p.5.{ y.J.s.p.p.",
"4.p.n.8.s.Z.p.e.%.q.a.U.3.Z.6.$.r.j.n.>.n.&.C.6.r 7 8 H T T B n b c l & X   @ 3 k.i.a.&.F.s.5.5.4.p.5.S.U.A.=.8.s.V.2.8.8.P.4.4.",
"n.n.g.A.H.y.k.,.y.,.5.F.P.P.<.$.w.a.i.n.p.M.p.P.y.;.e 9 i z x x j g & o o 3 r F.F.i.8.p.V.p.8.F.i.@.5.m.P.4.2.i.8.8.8.7.7.I.8.i.",
"!.V.<.K.f.8.b.2.w.X.c.C.P.Y.w.H.7.} p.7.m.P.C.F.@.8.m.*.l.e 9 4 4 3 4 w r c.=.Z.C.c.5.V.Z.P.L.a.H.o.p.B.Z.2.p.H.Z.5.V.p.H.U.H.g.",
"J.p.j.F.,.p.U.7.o.Z.Z.s.8.A.o.V.c.5.5.t.t.8.8.6.n.r.g.#.>.,.>.-.y.q.6.8.5.C.c.,.5.8.y.p.Z.H.F.8.m.s.p.n.s.y.4.i.Z.O.B.J.V.Z.y.V.",
"C.2.7.G.=.A.m.V.7.!.A.7.a.p.5.5.C.Y.g.,.5.p.Z.1.C.P.$.t.&.e.N.<.s.@.=.p.5.5.g.%.n.p.a.s.a.t.6.A.8.6.#.F.Y.Z.2.t.t.u.Z.F.p.%.o.c.",
"V.7.n.Z.5.N.V.8.m.Z.P.p.y.y.Z.Z.a.U.B.m.n.8.A.i.7.j.#.5.8.<.B.p.p.2.<.w.o.2.e.4.5.7.s.#.:.n.P.n.n.z.5.C.C.6.1.a.a.:.@.y.a.F.s.Z.",
"i.a.F.Z.B.i.8.i.t.2.g.3.,.J.P.F.W.P.A.R.H.4.V.p.&.J.i.t.p.&.7.n.V.:.H.1.$.J.y.7.5.8.a.1.6.a.i.s.d.s.6.:.1.y.,.,.7.2.1.#.4.I.W.s.",
"7.p.c.Z.p.8.2.n.7.X.O.#.i.I.P.9.G.m.s.I.i.[ 5.C.y.M.8.,.w.y.p.m.Z.o.8.Z.4.Y.s.4.m.z...5.J.i.1.p.3.<.>.&.%.y.a.a.5.A.p.=.=.C.L.5.",
"c.P.C.C.m.C.V.4.J.6.;.2.p.8.<.v.b.7.8.C.%.8.V.8.i.6.1.2.@.4.8.s.a.#.Z.A.2.F.5.:.2.Z.2.2.P.Z.+.7.5.{ ;.p.=.1.4.p.C.V.r x.y.i.V.8.",
"a.s.s.C.C.H.V.o.J.Y.V.6.s.2.4.L.c.X.V.7.[ p.i.8.8.V.j.7.=.4.5.p.V.i.V.V.7.P.4.i.&.U.A.i.C.8.L.w.4.7.,.k.4.&.1.J.Z.V.l.v.K.Z.p.J.",
"4.5.C.8.Z.!.Z.1.6.s.r.o.7.4.Z.o.s.i.8.-.s.H.1.4.c.8.G.c.8.8.8.p.A.5.7.Z.r.s.s.5.1.8.g.V.Z.c.R.p.J.J.y.F.4.,.H.W.i.A.s.i.J.m.C.p.",
"4.8.p.<.y.F.V.#.V.p.X.o.4.o.8.5.Z.f.#.0.Z.p.1.<.m.<.F.c.p.k.5.p.7.J.H.U.y.Z.p.=.J.y.:.c.A.s.S.A.i.C.1.H.g.,.s.7.8.I.V.2.C.3.V.z.",
"g.A.w.4.1.2.7.8.J.p...H.H.J.V.7.p.,.} 4.y.6.A.4.r.y.7.i.m.r 6.H.f.6.Z.B.U.J.<.:.J.s.$.2.p.L.i.A.a.5.Z.,.m.,.p.2.n.!.n.p.c.2.8.Z.",
"g.I.H.[ 7.s.%.C.V.1.8.s.4.U.p.2 x.i. .1.<.} 8.n.&.g.5.o.I.y.,.4.J.c.o.7.F.C.<.%.8.X.1.4.8.A.s.p.m.t.V.Z.P.h...4.c.n.m.@.P.Z.4.g.",
"p.V.P.4.,.g.u.J.8.6.p.$.o.Z.i.;.a.g.5.A.i.<.5.Z.C.Z.4.@.M.j.4.1.A.U.i.7.#.8.&.,.1.5.A.s.s.8.5.A.H.3.2.P.s.j.m.i.P.n.#.t.c.i.%.t.",
"J.7.Z.K.p.;.5.A.2.A.P.%.} 2.p.J.e.Z.P.A.s.:.c.L.a.Z.s.y.=.Z.Z.F.U.P.a.n.{ 5.7.p.A.s.Z.7.4.5.:.V.c.6.%.V.p.i.g.u.4.P.-.>.e.2.>.-."
};
