/* XPM */
static char *result[] = {
/* columns rows colors chars-per-pixel */
"64 64 120 2 ",
"   c #007F01",
".  c #367F0D",
"X  c #3E6F12",
"o  c #3F7412",
"O  c #446F15",
"+  c #437E13",
"@  c #008301",
"#  c #0B8403",
"$  c #028B02",
"%  c #0C8B03",
"&  c #138604",
"*  c #1A8704",
"=  c #148B04",
"-  c #1C8D05",
";  c #039302",
":  c #0D9303",
">  c #039A02",
",  c #0D9D03",
"<  c #149404",
"1  c #1C9305",
"2  c #149B04",
"3  c #1C9B06",
"4  c #238D06",
"5  c #2A8D07",
"6  c #278709",
"7  c #2A8509",
"8  c #248D08",
"9  c #2B8E09",
"0  c #31870E",
"q  c #35890D",
"w  c #3C8E0F",
"e  c #239306",
"r  c #299407",
"t  c #239B06",
"y  c #299B07",
"u  c #259408",
"i  c #2C9409",
"p  c #259B08",
"a  c #2C9B09",
"s  c #33950B",
"d  c #3A960D",
"f  c #349B0B",
"g  c #3B9C0D",
"h  c #3E8F11",
"j  c #3E9610",
"k  c #3F9E10",
"l  c #0FA804",
"z  c #14A304",
"x  c #1CA306",
"c  c #1CA806",
"v  c #23A207",
"b  c #2AA207",
"n  c #23A906",
"m  c #2BAC07",
"M  c #26A308",
"N  c #2CA309",
"B  c #27AF08",
"V  c #2CAB09",
"C  c #34A30B",
"Z  c #3CA30D",
"A  c #34AB0B",
"S  c #3CAB0D",
"D  c #27B007",
"F  c #23B308",
"G  c #2AB309",
"H  c #34B20B",
"J  c #3BB30D",
"K  c #35B90C",
"L  c #3DB80E",
"P  c #3FAA10",
"I  c #41960F",
"U  c #419D0F",
"Y  c #448313",
"T  c #488115",
"R  c #428B12",
"E  c #498C14",
"W  c #508618",
"Q  c #449411",
"!  c #4D9215",
"~  c #449D10",
"^  c #4B9C13",
"/  c #539416",
"(  c #519B15",
")  c #539218",
"_  c #5E9619",
"`  c #5B9E18",
"'  c #42A40F",
"]  c #42AB0F",
"[  c #49AC0F",
"{  c #42B20F",
"}  c #49B30E",
"|  c #42B90F",
" . c #45A410",
".. c #4BA512",
"X. c #45AB10",
"o. c #4BAB11",
"O. c #52A614",
"+. c #5CA517",
"@. c #53AC14",
"#. c #5AAC16",
"$. c #45B310",
"%. c #4BB312",
"&. c #45BA10",
"*. c #4CBB11",
"=. c #53B314",
"-. c #5AB415",
";. c #54BB14",
":. c #5ABC15",
">. c #61B417",
",. c #61BB17",
"<. c #62B618",
"1. c #68BE19",
"2. c #4CC112",
"3. c #54C114",
"4. c #5CC216",
"5. c #5CCC16",
"6. c #61C317",
"7. c #64C418",
"8. c #66CD18",
"9. c #68CA19",
/* pixels */
":.;.1 g %.C O  .S C ] e * S C -. .g =.] ' p Z %.C C i A Z a  .o.~ ;.v o.A n %.[ o.f C y - i f -.o.' ' 6 i u A N u i k g S - r f ",
" .$.] Z s q ~ ' i < f a 8 N V Z ~ v a A [ A r s f g g u P P f k ~ ..i =.A S %.] g C A e ' ..d =.g A ' ) f u g y g i = A C u i 1 ",
"*.V A e i o.S P g ; i o.Z Z C e 2 v e y ..g e g a o.o.g C ..g e a Z ~ o.f U  .p t : a y  .f ] ' g e f *.o.k  .X. .C @ i t i 1 u ",
"=.f H - y $.N Q j > o.%.o.C P e N = r s ..g 3 A J y g d r o.g 3 X.d  .t Z s ' } N % 9 s X.$ ] X.p Z t o.-.A g X.{ y f A % ' ] s ",
"g o.=.f ] s f =.f $ ..:...i P Z  .> ' e g f 1 C S 1 d r * ] [ e  .N ..< ;.:.C ;.r ] A S ] < S =.e %.A g =.y i :.*.M Z p t f o.g ",
"S Z O.C a i S -.X...Z 8.Z - g g ..5 o.g t M S g k - ..' %.%.Z - i C g 5 +.9.%.X...;.] V S t a $.$.P O.g  .i * -.r 8 X.f * m $.M ",
"b f C U e H J ..@.d $.$.Z ..@.i X.a i X.u N *.=.X.u o.7.&.' s V d Z  .C ' @.o. .Z ;.%.1 r - i s Z A  ./ ! Z f o.Z N o.Z r F S y ",
"t { u ] } &.Z Z U ] X. .d g #.r P A a $.e C A  .o.p ' >.-.a 1 x H o. .$.N g g s Z ;.O...' Z S S  . .N + o.Z g $.J A Z @.o.2 A C ",
"f Z P H 5.X... .y #.o.A X.X. .J s i A X.s i f =.d M C ..o.d p C M { { J u i ' { *.- ' @.,.@.] *.-...s N ] ' i  . .9 2 %...e o.U ",
"O.A 3 t  ...Z X.M o...x ..d ] H C U Z f ..o.f o.4 - g ] @.g C ..u -.Z Z y ..' ;.:.p a ' #.%.f Z =.Z ' d ~ ' N u X.S p d @.[ *.Z ",
"J Q & y i ~ g  .k y  .f o.' o.Z 1 1 ' ..$.*.i s C v { ' ..U N =.o.o. . .;.] <.' ' v f g f U [ 1 a Z s a g r $ , o.;.o.d ..S V C ",
"A Z %.S  . .y ^ f H J Z ;.&.] ' 5 q ..o.A @.= x X.A C ' Z N 4 Z  .~ $.P =.H @.- ' n y =.' f g ; d  .- 1 f e & % o.@.=.-.@.' - a ",
"S C @.$.d o.%.f = %.] $.C C Z  .o.;. .Z ' ..C H y f - 1 g v 4 i a s ' X.' Z L * u t t C %.p < - g g d C P a e Z  .o.[ '  .Z N r ",
"g  ...o.Z s Z g f g g Z Z r y C ] ] d &.3. .a r i o.A = Z Z r C S C Z r  .f f 4 * * C a Z s ..s g U S  .r e 1 %.{ S s p ..~ V y ",
" .X.o.X.C X.f  .Q s ' f A M r S { = f @.Z Z d f g 3.C 4 K ' g N &.=.f @ ~ d p r Z s f A g C ^ Q =.*.A f A J p Z  .d N v +.+.C f ",
"N x g i e Z x Z Z X j X.# i f Z C u @. .i o.$.Z } ' s p S Z S f C #.& i g < 3 = -.X.1 C A $.3 @.7.-.g t p C f A  .y ] =.-.#.C S ",
"o.X.1 X.s  .S { X.) f @.u 8  .X.i 6 Z A C 5.=.C C g f 1  . .o.i M d i o.Z a Z i  .X.C f % 1 m -.X.o. .g 8 = o.' i - ..-.%.C i S ",
"S @.d ..s ' ] C o. .M ( ~ v A i  .o.f g s ] ] A S s U g a =.-.* a ..' O.g s ~  .o.$.A ..f @ N $.o.> =.S ] C S ' S o.i f o.f $ Z ",
"e Z #.@.Z Z J i h g s Z q 1 % $ { o.- U s s 3 A o.' @.D - Z @.9 u @.' s o.@.o.] ;.&.f g ..f g a ;.C X.f Z o.i o.A %.] t  .o.s ' ",
"s C Z %.1 a i 4 Z V g Z u a %.$.L  .* ' N X.s N X...Z i e s Z p u #...2 @.;.Z H C f Z  .J ]  .s  ...C V ~ ' g s u s ..N S %.p g ",
"=.f $.] 8 &.] f S N S X.-., =.:.C o.% g Z ] 4 r f ~ k y i o.S N u J &.y O.Z N t r j ..i Z *.=.f r ] A $ Z [ =.i ' u g f 1 ] % % ",
"$ A :.g ] { | 4.X.Z  .C s 4 f A 4 Z 2 ..-.s - i v C $.g = *.~ 7 M H Z 5 s X.v < d  .Z X.C X.o.-.r > ] g $ N X.4 ] ..t 3 f Z g 5 ",
"s = o.r f L { @.Z C o.b % Z f a g C f o.=.a r N N C S Z < C o.f g ..U d f 2.n N g S , ' X. .S @.g & s #.g p f ' ' o.v m S ] C =.",
":.$ d a ' o.1 Z o.Z d t f 8.3 N A V e 3.%.M 1  .f s  .-.N a =.s y .. .S :.X.i a Z ] N @. .V Z X.N 1 ' @.{ C a H g f N ;.C f A ' ",
"' f 4 f 3. .o.Z o.Z C g ..@.I a ' a f C g C f Z A g ! g t f ' S t X.S Z A f i s A 9 ] 7.' < Z o.V f -.o.a  .Z Z A % i ....s ' U ",
"' -.C A =.X.:.X.-.;.H ..@.S A r e 3 g Z 3 g ~ g A Z o.p 2 C Z K 3  .;. .A p s @.C C r #.~ y  .X.Z g C @.o.Z 8 y V * y @.g S r e ",
"Z %.o.*.g d .. . .o.u ~ ^ * V a - } { g $ ' ] Z  .N %.] : i 1 V p f o.S &.i X.] f 1 r g g S g N X.L 3 A C f y N a N y s ' ' H B ",
"g @.^ ..s - i ..-.&.3 ..] Z ' :.s [ =.A - U 4.3.s s ' o.e i 3 e N A s u i a o.C 5   ] Z f 8 S S f C 3 M C f f : a s &.Z Z 4.] Z ",
"g ^ Z M < 1 Z f =.X.< X.C 1 p @.U @.[ A 4.] ;.{ d i  .o.Z f s 1 - y  .e i A K -.$.C { ^ C M d @.s k $ = i O.i e C Z 2.=.o.' ..d ",
"f p $.f a i %.S Z  .1 i i X.y f R g s ' :.} @.a 3.> Z $.*.X. .%.e 4 .. .u Z N g $. .{ ] S L =.4.] .. .f t  .j p i A $...o.[ s t ",
"Z N g o...u Z Z V $. .- C a s n d . g ..O.Z @.- X.$ r Z ..~ s -.Z ;.$.Z Z X.i $ g X.f S D x ..i ' S #.<.f X.S m 3 i X.*.=.Z a u ",
"Z o.@.] ' p 3 s -.Z o.X.Z d k ; ] S d @...s ( g f & * i g g 3 g =.X.$.;... .u Z g  .- ' V t g ..$.N Z #. .%.A , f s %.=.<.f g M ",
"Z ' O.k A s 2 z @.U A 6.' p ' # a A Z g f g ..C C s Z d C Z 8 3 $.S p H o. . ...J ~ - g f f y g a a C f P P r @ I Z X.f #...s 8 ",
"d o.X. .p a $ z C Z C o...3 S %.a g V 3 { J C V H y U j D A 8 3 N g y p Z P o. .V U g =.%.a r r d g  .;.$.f * s 3 A S N Z -.S i ",
"Z g $.C Z  .% s ' ] ' b #.U y =.M *.u = ] o.Z =.C ' g  .3 2 $.Z * g 8 d r 1 V $.Z x Y X...1 5 f f ~ ..:.o.g C O.&.$.C p 1 o.Z g ",
"..; C a Z Z u r @.' ] A =.#.p g g  .~ V S g g ] U U i V p S %.X.p o.o.o.S f L %.$.> 3 C g A s f y a S o...i N O.;.N { u i  .~ g ",
"o.1 a u y a  .$.%.s g A V S o.* r C *.A a ..e N A p S b S =...V a Z ~ =.%.@. .Z r s = 9 ] o.=.:.' y S o.:.o.p f y $ J ' $.C S ' ",
"| y p U e A P *.J ..o.m - d X.f y P K f s o.C A a Z f Z s O.~ y t f i ....#.j 8 U o.i x ' ] a L f $.o.X.=...d Z 4 - ..@.Z > a J ",
"C ' C U ~ Z N P X. .%.M p d Q N - f %.3 f ....s 5 s %.' R Z d ~ X.N Q C &.o.P N t C A > o.o.S H r s ..< -.] f A r C @.@.i - i o.",
"g f $.f Z A i a C ..o.N 2 g Z A Z s g 4 g y -.o.o.i L S %.X.o.=.o.f Z A L 2.$.:.S - q   %.@.N f g %.b = S ] 1 C $.i g A f a C ..",
"A t & f t t C i 9 r d i = J  .N $.g X. .O.= o.=.;.f a A $. .a X.Z Z X.k S o.d o.&.3 7 y  ...a i $.] ' g , l @ Z ;.N * i f $.e k ",
"%.C % V p * Z { u g u i 4 g $.s g g  .;.o.t ~ X.V A 8 y C f S s Z P X...i s f V f A K L Z f o.C  .d o.y u # g ] $.H -.a A X.C $.",
"-.] = A N f D p C o.f J Z i V A Z u o.A v C i f ..g - s ..o.s a *  .%.f Z i C i s -.;.; *.H ' Z ....' r s g O.' s L -.s N ~ g :.",
"O.E e ] { S y C o.1 N ..o.z A i O.Q k Z : X.g N Z U r $.%.7...g p - ..$.Z Z r $.~ @.a 3 S S X.g %.f s C ] ' ' ..d X.' f u f f  .",
"] X.U  .f U 7 J X.- C g ~  .C p f E g &.i Z Z ~ ' d ] S f #.' C f 1 u %.g ' N Z f g g S 1 s Z r 9 g A 2.o.k 3 C $.P i y g ( k o.",
"S S Z f - X.u s ' ' h f < $.N u N d X.S @.o.S f s S N p Q ~ S o.Z p %.Z u f $.C a %.S e f ] g r g ] A C o.=.y $ S 3 v 1 A ( Y  .",
"C =.S y 4 r s f ..g 4 2 C g d $.N ' N Z f  .~ 2 b C p 4 C x o.#.S ; @.' 1 Z @.t d %.; N A e U [ =.m f < =.X.g A a = % 3 *.p X...",
"N :.o.5 N o.' s y b r a A =.o. .= g Z g Z s  .i Z ] A f C K ..o.Z U [ f N Z ~ # g s 8 t -.d ^ r @.f Z :. .k f o.g s # N %.S Z Z ",
"y Z  .f H  .Z v 3 c A ;.p  .f 2 m U ' r Z 4 [ g g ' ] S @.C o.Z o.o.%.S $.V S q g C Z - @.P s s s Z s O.;.o.8 g P  .u g Z =.a a ",
" .' J o.X.N R y V 1 a #.@.=.a 2 x A C ' Z [ g =.y i Z f =.U  .K X.a V u s p u =.o.Z C  . .Z g %.C 2 s ' =.a i C d f j g g =.g C ",
":. .y %.K g ` r t =  ...=.-.x $.f $ Z f ' =.' @.1 g ] - Z ' ' A z a & r f U u ' ..~ s  .X.-.%.A { - Z | X.i Z $.X.s  .C o.;.$.J ",
"=.P g @.t g =.C = X.X.P  .o.1  .U s s M N Z U d ' m A e r r r 9 N l s U f .. .p s g N C X.{ #.f ] ] Z ' S N a C $.> $.%.Z X.N  .",
"o.i f #.8 o.X.~ f 6.o.a C Z 9 s ..:.J p s Z ' u ..%., b 4 p { a S < 4 S f s S 1 U Z A J A M d @.g d - @.:. .i M N B ] -.' 1 - ' ",
"Z g Z X.f $. .g $.X.=.Z N V X.o.A ;.{ ] ' Z o.C s U - a g y | Z Z u a 3 * i v a s f S 1 1 X.=.' ] Q f  ...g u H A e < N A =.S X.",
"C C =.%.{ A d C p i L t p %.=.o.4.;.o.,.$.a ' Z 4 $.Z b C e f ' ' e { r 2 $.a g i d C u d C A P G ] s u u N 3 u f i u - a @.3.X.",
"f Z ~  .Z d a ' f = % 1 C -.=.w +.{ Z -.C @ f ..A X.g t n N U S X.- g ] N :.S a { ^ * s $.C u Z p r r 5 3 A A C s o.Z 8 4 o.%.f ",
"~ =.....] .. .a %.j q i Z g y ^ _ f g ..2 g ' g C g r i 1 y g A C t X.o.i @.f 1 r  .i a -.X.: f s $ s k 8 8 a C ..k T E N C ..d ",
"C A X.o.o.$. .* %.:...s S u a *.~ =  .f @ ] f g d ~ U f 8 a f Z Z C ' X.g =.a C 5 =.$.C o.s } c a g - R a e i $.X. .W ^ &.X.Z %.",
"a s ..f  .6.$.r d ] N - g a X.- ] N j r Z $.u N ~ U #. .g f d Z o.f f  .V A ] s u ' $.Z  .~ 1.Z o.%.N #.y p $.4.C o.S C %.] o.' ",
"p k P y N @. .1  .C = 1 a - g s X.H 1 d $.Z u i ] p O...Z + j Z d %.{ ;.N ] g 5 $.N e ~ o.S O.o.C o.i $.J t P f Z #. .i  .r ' U ",
"$.o.x i i r s g &.Z * ] $.$...g Z t $ a a d o.N n N f C ] + d $.J f  .$.:.{ y e %.S < i  .%.A o.C a X.p ] r C i ' 4. .C U s d X.",
"J -.J $ f S 1 o. .r g S y ;.C o ! C # u p $ g ' 5 J f - ;.C t a %. .- f @...y 3 g * u a Z X.S Z X.M X. .=.U * y .. .] < =.] a K ",
"Z  .-.a p S A =.d s C x = X.N 0 Z J f o.C y 9 o...] a < ] U a u o.=.C f 1 g 4 t u a o.P P g s o.J N i =.S ~ ] A =.' 1 b ' C t M ",
"@.C P $.C d i o.i o.=.u $ s S &.M ] =.X.] e ' ;.A o.S p u ..X.@.=.;.V ' & s f Z @.A X.f a i e ..~ s u  .g C J m f o.5 i v i i 9 "
};
