/* XPM */
static char *result[] = {
/* columns rows colors chars-per-pixel */
"64 64 254 2 ",
"   c #09001C",
".  c #370A03",
"X  c #36110C",
"o  c #363212",
"O  c #3C3528",
"+  c #470A03",
"@  c #560903",
"#  c #461507",
"$  c #4B1B03",
"%  c #581706",
"&  c #511A16",
"*  c #690701",
"=  c #750201",
"-  c #770B00",
";  c #661907",
":  c #6B1B03",
">  c #771A04",
",  c #761B13",
"<  c #4B2F0C",
"1  c #592907",
"2  c #4D331D",
"3  c #54341D",
"4  c #5A381D",
"5  c #632304",
"6  c #6C2704",
"7  c #742404",
"8  c #742C05",
"9  c #7A2C05",
"0  c #792809",
"q  c #693807",
"w  c #78330A",
"e  c #682915",
"r  c #762613",
"t  c #683519",
"y  c #763917",
"u  c #463B29",
"i  c #593B23",
"p  c #652D24",
"a  c #3C4905",
"s  c #345A04",
"d  c #087D01",
"f  c #366807",
"g  c #2D7706",
"h  c #377708",
"j  c #366F12",
"k  c #034524",
"l  c #484A08",
"z  c #5A4A05",
"x  c #475707",
"c  c #575909",
"v  c #545318",
"b  c #644607",
"n  c #764508",
"m  c #67530D",
"M  c #7B4418",
"N  c #6E5816",
"B  c #755A16",
"V  c #456608",
"C  c #57690A",
"Z  c #45780A",
"A  c #55790C",
"S  c #477217",
"D  c #666908",
"F  c #726C15",
"G  c #697415",
"H  c #55452D",
"J  c #4B5828",
"K  c #4E4A31",
"L  c #584933",
"P  c #5C5338",
"I  c #66462C",
"U  c #7C4A24",
"Y  c #6F5629",
"T  c #684C32",
"R  c #695539",
"E  c #755938",
"W  c #4C7028",
"Q  c #6A6D33",
"!  c #545541",
"~  c #695E44",
"^  c #7B6D47",
"/  c #8A1207",
"(  c #AA1C0B",
")  c #872906",
"_  c #8C220B",
"`  c #962709",
"'  c #883507",
"]  c #943206",
"[  c #963607",
"{  c #853A15",
"}  c #903011",
"|  c #A62409",
" . c #A73806",
".. c #B0320E",
"X. c #CB300B",
"o. c #89510A",
"O. c #884518",
"+. c #95491B",
"@. c #87581C",
"#. c #98541C",
"$. c #B64C0E",
"%. c #A84B1B",
"&. c #A5531E",
"*. c #8D6C16",
"=. c #B2640F",
"-. c #8C4C21",
";. c #964B21",
":. c #8E5621",
">. c #9A5623",
",. c #865433",
"<. c #A35421",
"1. c #A75A23",
"2. c #B55B23",
"3. c #9C6128",
"4. c #916D2B",
"5. c #846736",
"6. c #A7662B",
"7. c #B86529",
"8. c #A6782D",
"9. c #B5762A",
"0. c #A56834",
"q. c #A87436",
"w. c #B97836",
"e. c #C85011",
"r. c #D16D16",
"t. c #F36F10",
"y. c #C46928",
"u. c #D26F2C",
"i. c #C8742A",
"p. c #C87935",
"a. c #D57A33",
"s. c #E06726",
"d. c #846A49",
"f. c #A97341",
"g. c #C67F40",
"h. c #058502",
"j. c #018B02",
"k. c #0C8B03",
"l. c #188705",
"z. c #148B04",
"x. c #1C8D05",
"c. c #089603",
"v. c #139404",
"b. c #1C9306",
"n. c #149B04",
"m. c #1C9C06",
"M. c #238D06",
"N. c #258C08",
"B. c #2A8808",
"V. c #2B8E09",
"C. c #368C0B",
"Z. c #239307",
"A. c #299307",
"S. c #239B07",
"D. c #299A07",
"F. c #259408",
"G. c #2B9409",
"H. c #259B08",
"J. c #2C9B09",
"K. c #33950B",
"L. c #3B950D",
"P. c #349C0B",
"I. c #3B9C0D",
"U. c #288B12",
"Y. c #388913",
"T. c #18A305",
"R. c #22A307",
"E. c #2AA807",
"W. c #26A208",
"Q. c #2CA309",
"!. c #2CAC09",
"~. c #34A30B",
"^. c #3CA30D",
"/. c #34AB0B",
"(. c #30AD0C",
"). c #3CAB0D",
"_. c #34B10B",
"`. c #3CB20D",
"'. c #3DB80E",
"]. c #4A850C",
"[. c #458C0C",
"{. c #57870D",
"}. c #46960D",
"|. c #419D0E",
" X c #52950E",
".X c #488A15",
"XX c #568914",
"oX c #459411",
"OX c #439D10",
"+X c #4B9C13",
"@X c #569715",
"#X c #6A841A",
"$X c #718D19",
"%X c #42A40F",
"&X c #4AA50E",
"*X c #42AB0F",
"=X c #58A50C",
"-X c #42B20E",
";X c #42B90F",
":X c #45A410",
">X c #4BA411",
",X c #45AB10",
"<X c #4BAB12",
"1X c #52A514",
"2X c #53AC14",
"3X c #5BAA16",
"4X c #45B210",
"5X c #4CB312",
"6X c #45BA10",
"7X c #4CBB11",
"8X c #53B314",
"9X c #5AB415",
"0X c #54BB14",
"qX c #5ABB15",
"wX c #63B218",
"eX c #469D22",
"rX c #788C23",
"tX c #73AF2D",
"yX c #4EC113",
"uX c #5BC316",
"iX c #64C818",
"pX c #908318",
"aX c #8C912B",
"sX c #AC8932",
"dX c #94AE36",
"fX c #C5832C",
"gX c #C6853A",
"hX c #D78638",
"jX c #E58739",
"kX c #F0903B",
"lX c #F8963F",
"zX c #E0A83E",
"xX c #B59151",
"cX c #90B343",
"vX c #B3AA4F",
"bX c #AA8678",
"nX c #C48944",
"mX c #D3954B",
"MX c #FC8F41",
"NX c #E59643",
"BX c #FB9841",
"VX c #FE9B43",
"CX c #CEAD4B",
"ZX c #FEA346",
"AX c #F1AC4D",
"SX c #FDA949",
"DX c #D5AF68",
"FX c #EDB875",
"GX c #F8D55A",
"HX c #DCC26F",
"JX c #FFFE75",
"KX c #DFBF86",
"LX c #ECE5A2",
"PX c #FFFFC0",
/* pixels */
"qX0Xb.I.5XP.S :X).~.*XZ.x.).~.9X,XL.8X,X).H..X~ L.^.Y.sX{.~.%X=X+X0XR.5X~.R.8X<X4XP.P.D.b.G.P.8X>X:X%XN.G.S./.Q.F.G.I.I.).x.G.~.",
":X4X*X^.K.K.OX%XG.v.P.J.M.W./.^.OXH.J.~.,XW ^ Q K.~.}.5.nXvX].rXCXcXG.8X/.).5X).L.)./.Z.^.&XI.8X^.~.:X@XL.F.I.J.P.G.z./.Q.G.G.x.",
"7XE./.Z.V.<X).`.I.j.P.<X^.^.~.b.n.R.F.U..XW ^ ^ J.>X&XF w.6.7.9.aX$X:X>XP.|.&XS.S.v.J.J.:XP.*X%XI.Z.P.5X<XI.:X,X:X~.h.J.Z.P.b.Z.",
"8XP._.x.J.4XQ.oXL.c.4X<X<X^.).Z.!.z.G.Y.R W d.J ).[.9.p.>.>.G S.*XI.,XS.).L.I.6XJ.k.V.K.<Xj.*X:XJ.^.m.<X8X).^.<X4XJ.K./.k.^.,XK.",
"|.<X9XP.*XG.P.8XP.j.<XuX>XG.).^.:Xc.:Xj ~ W d.k 6.1.>.mXAX8.dXaX*.C.>Xv.8XqX^.0XV.-X/.).*Xv./.8Xb.5X~.I.8XJ.U.0X7XW.^.H.m.P.2XL.",
").^.>X~.J.J.).8X,X>X^.iX^.x.I.I.1XN.,XS ~ Q W p X.&.1.7.w.2.7.hX....' B.3XiX7X:X*X0X*X!.).H.J.<X4X).<XI.:XG.x.9XG.M.,XP.z.!.4XR.",
"W.~.P.|.Z._.`.>X2XL.<X4X~.>X2XG.,XJ.J.:X! P v _ ` &.1.' > : / =  .r.2.O.rX2X<X:XI.0X5Xb.A.x.K.K.:X~.,X@X+X^.P.<X~.~.<X^.F.!.).J.",
"S.-XA.*X5X;X^.OXI.,X,XOXI.OX2XG.,X(.G.4XU.K e ; # #.#.> ) 7 _ p.kXkXAXhXn P.I.C.^.0X2X>X%X^./.).:X:XQ.Z >X^.P.5X`._.^.2X5XT.Q.~.",
"L.^.).`.uX5X>XOXJ.2X,X/.<X:X<X`.P.K./.,XG.V e ) w 3 * = ' - y.lXhXhXi.q.] D %X;X0XM.%X&XqX2X*XyX9X>XK.J.).>XG.:X^.V.n.5X>XZ.<X|.",
"2X~.T.b.%X>X%X,XQ.<X1XT.>XP.)._.~.I.^.K.<X4 > { 1.M :.>.) > 7.w.0.=.7.mX+.e.*.0XuXS.P.%X1X8XI.^.5X^.%XL.OX%XQ.S.,X*XZ.L.2X*XyX^.",
"`.L.z.J.J.OXP.:XI.J.:XP.<X%X>X^.b.x.%X>X-XA { &.6.z 6.w.[ ) ) HXDXnX2.p.1.] t.s.pXD.~.L.P.|.&Xm.J.^.P.D.|.A.j.c.<X0X,X}.>X).!.~.",
").^.5X).:X:XJ.:XP._.`.^.0X4X-X:XV.C.&X&X/.$X7.6.>.m * > +. .) nXmXnX7.e.s.w $.t.t.*.D.8X^.P.^.j.L.:Xx.b.^.x.l.z.2X2X8X8X2X^.M.J.",
"/.~.8X<XP.<X4XL.z.4X).5X~.~.^.OX<X0X%X^.%X@X>.>.-.-.+.+.7 ) ..] 2.y.y.a.y.0 ) ] ( ] B.).-XD.v.M.OXI.L.~.).J.b.^.>X<X&X%X:X^.Q.G.",
"L.:X>X<XI.K.%XI.P.I.I.^.).G.D.~.*X*XI.5X0X,XV.N :.;.+.>.7.1.$.2.&.u.s.y.] %.t.[ + z ~.J.%XK.&XK.L.^.).:XG.Z.b.5X,X/.P.D.>XOX!.J.",
"^.,X5X,X~.<XP.:XoXK.:XP.Q.Q.A.`.-Xz.P.2X^.^.L.C.XXO.-.{ ;.hXhXp.7.$.$.E & | s.$.9 n C.~.K.~.+X}.8X8X/.P./.`.J.~.:XP.~.W.3X3X~.P.",
"~.R.P.G.Z.%XT.^.%Xj I.<Xk.G.K.^./.A.2X&Xx < 1 1 s z { O.O.-.-.M -.y o.CXLXbX/ 2.[ m x.E.).-Xm.2XiXqXP.S.H.~.P./.:XJ.-X8X3X1X~./.",
"<X,Xb.:XK.^.,X-X,X@XK.<XF.V.:X,XK.B.^.c 6 6 1 1 % 8 ) : 8 e y M M y 0.w.CXHXq.$ D XX^.P.k.x.!.8X,X,X:XI.N.z.<X%XG.x.>X9X5X~.G.).",
"`.1XL.>XP.:X*X~.<X:XW.@XOXR.~.C.|.<X}.' ' [ 9 ; $ [ $.7 : : 6 y y y ,.q.3.=.FXKX<X4X~.<XP.h.Q.-X<Xc.8X).%X/.).%X).<XK.P.<XP.j.^.",
"Z.^.2X2XI.^._.G.L.I.K.%XC.b.k.j.&X<XV [ [ ] [ ) ;  .X. .) : : % t U 0.0.0.-.q.LXtXyXP.I.&XK.^.P.8X~.,XP.^.<XG.<X/.5X*XS.%X<XK.%X",
"K.^.^.5XZ.J.J.N.%X!.K.^.F.h  X4X-X&Xm [ ' ] ] [ ]  .$.e.) : 7 @ y q.g.g.p.;.6.=.:XJ.%X>X_.-X%XK.,X1X~.!.OX^.I.K.A.P.:XW.).8XS.I.",
"8XP.<X*XM.7X*XP.^.~.).*X8Xx 5 b b N >.] [ ) ] ]  . . . .) > ; * U w.gXjXa.y.0.Y A.L.>XG./.0X2XI.A.*X[.j.^.%X9XG.^.G.I.P.b.*Xk.k.",
"j./.qX^.*X'.'.uX*X|.*XC.q 8 8 9 7 { -.; 6 ' ] ] ]  . .` _ 0 t : M xXgXNXNXu.;.r A +X:X,X~.<X<X2XA.M.w L.j.E.,XM.*X>XS.T.P.^.L.A.",
"K.z.<XN.~.'.-X2X^./. X6 ' 9 ) 8 : 0 -.@ ) ` ] ] ] ` ) _ 0 * = = 0.f.sXNXjXa.:.y M ).c.:X%X%X).3XL.z w 3X|.H.P.%X%X<XS.!.).*X~.8X",
"qXj.L.J.%X<Xb.I.<XV 8 w 8 9 9 8 : @ { ' > ) ) ) ) ) ) > = ) xXnXw.w.f.VXlXgXh y O.9.$X8X%X_.^.*XW.| n 8X*X~.J._.I.P.Q.0X~.P./.%X",
"*XP.M.P.qX:X,X:XC w 8 6 5 8 8 ' 7 % + [ ) ; > > 0 - = ) xXPXPXLX1.gXAXNXg.@XC.N M u.ZXfX*Xm.I.&X{.X.C <XK.^.^.^./.k.G.1X%XK.%X%X",
"%X9X~./.8X4XqX].9 6 1 1 6 8 9 ' 7 : + @ 9 ; : ) / ` p.i.nXLXPXxXgXAXAXp.3XF.K.G ;.;.jXkX XD.&X*XB | h 1X<X).N.J./.z.D.<X%X^.Z.Z.",
":X5X,X8XI.L.,Xb 8 1 < 8 9 8 9 9 8 % + + + @ b b n BXSXSX=.f.DXfXAXAXmXwX6XK.:X+X-.>.7.kXpX~.I.E.' ) b./.~.P.J.W.J.J.D.K.%X%X_.!.",
"L.1XOX<XK.x.V.z {.6Xh ' 9 6 8 8 7 ; % % % ; D =XgXSXVXZXlX1.xXNXgXgXsXb.P.J.:XP.h :.;.p.sXZ.).}.` q b.W.~.P.P.v.J.K.6X%X^.uX&X/.",
"^.+X^.R.v.b.|.K.8X).n ' ' 8 6 5 6 % : ; : : c F lXZXlXZXZXp.w.jX7.hXsXF.G./.'.9X5XoX-.>.9.W.P.G ( l h.l.G.>XG.Z.~.:XyX8X<X%X&XL.",
"P.S.4XP.J.G.5X).^.A ' ' ' 9 1 $ 5 5 > > > 1 C *.hXZXZXSXSXkX9.i.2.mXaX:XG.P.Q.P.<X:X@X-.-.4.F 7 = b +XP.S.>XL.J.G./.4X>X<X<XK.S.",
"^.~.P.2X>XF.^.^.E.].D ] w 9 6 $ $ 8 z c c A {.:.2.lXSXSXSXZX9.p.i.>.{.^.:X).G.h.P.>X~.F -.7.jX+.y +.#XqXP.,X`.!.m.G.,X7X9X^.J.F.",
"~.<X8X%X%XS.m.K.9X%X&Xn ' 8 1 $ $ % q {.&X[. XF &.hXSXSXSXSXa.0.3.{ B 0X>X>XF.).rXsXl.:XN -.6.>.+.O.A 3XOX5X_.c.K.K.4X0XwXP.P.W.",
"*X%X2XI./.K.c.T.=X|./.3X' 8 $ $ $ $ $ 5 c }.&X[.<.2.NXSXZXSXa.0.>.{ o.^.&X+X|.&XsX8.B #XF 0 + e y y [.P.^.).U.h.oX^.<XP.2X>XK.N.",
"L.<X%X:XQ.J.j.T./.~.I.&XD 8 o $ 1 $ $ $ Z `.I.~.*.2.u.ZXZXVXMX7.O.{ +.{./.*X&X%X$X8.8.8.O.= _ ; % -.@.0X5X~.l.P.m./.).W.^.8X).K.",
"I.I.-X~.I.,Xk.K.%X*X%XQ.{.C D. Xg Z g l.*X&XI.0XF 2.2.MXVXVXMX7.} O.+.B D.b./.;XI.G :.3._ X : > ;  .q qX<XI.~.1X7X4X~.H.b.<X^.I.",
">Xc.~.J.^.^.Z.G.2X%X<X_.8X2XJ.I.^.%XI./.).I.L.<XF 2.1.jXVXVXBXy.w +.{ O. XP.-X5X5X@ + | | - ; . @ &.CXdX>XeX^.1X7XQ.4XF.G.,XOXI.",
"<XZ.J.M.J.W.:X4X5XK.L././.).,Xl.V.K.0X/.J.<XF.Q.#X1.<.u.VXBXBXy.9 O.O.O.sX&X&XI.G.x e e U #.` _ ` 7.AXGXCXHXrXL.D.h.`.%X,X/.).:X",
"'.W.S.|.b.).).0X-X<X<X!.x.L.,XP.D.`._.P.K.>XP._..X1.;.y.BXBXBXy.w O.O.q 6.tXL.A.OX.XK O 3.9.6.@.( e.1.sXCXzX*.*Xx.b.>X1X^.c.J._.",
"~.%X/.|.oX).Q.).,X:X5XR.J.K.OXQ.b.K.6Xm.P.>X>XG.M.@.1.&.MXVXVX7.w { O.w #.aX*XP.S.S K 2 zXhX9.U , e r _ B $X{.~.J.~.2X2XG.b.G.<X",
"L.P.5XP.^.~.G.J.~.>X<XQ.v.P.:X~.^.L.I.M.I.J.9X2X<XG 2.#.a.BXVX7.9 O.n M +.sX4XqX).J O 5.JXGXy.i # 2 I ` V -XM.~.4XG.I./.P.J.P.<X",
"~.T.k.P.S.S.P.G.G.G.L.G.z.`.*XQ.4XI.:X>X1Xz.<X8X0X.X<.#.i.VXVX1.w O.w O.O.8.oX4X5XP   vXJXJXsXX 2 3 i v v.T.d ~.0XQ.x.G.P.4XF.I.",
"4X~.k./.D.l./.-XF.I.F.G.x.I.*XP.I.~.,X7X<XR.OX:X!.~.@.<.<.hXa.;.y y q M O.q.P.$X5.K   vXJXGX&.o 3 4 H U.F.h.P.*X5X_.8XJ.~.,X^.6X",
"9X5Xx._.P.P.!.D.~.<XP.`.^.G.!.~.%XA.<X~.R.~.F.P.,XG.M &.>.+.;.O.O.N D O.:.sXQ.W ~ i   cXJXGX% 2 3 i R x.L.~.2X:XG.`.qXP.J.:XP.qX",
"1X.Xb.%X-X).D.~.<Xb.Q.&X<XT.~.J.1X}.L.).c.&XI.K.a & { ;.<.+.;.{ { f  XM 4.sXF.5XP u u u vXE & i 4 T Y ~.*X:XOX,X}.,XI.P.H.P.K.>X",
"%X*XI.&XJ.|.B.*X*Xx.~.|.:X^.~.H.~..XI.;XG.^.^.V + e -.<.<.;.;.y % o S.G 6.dXJ.^.P K u H   X i 2 3 T B 0X<XI.m.^.5X).G.J.P.+XI.<X",
").).^.P.b.*XG.J.%X%XY.P.v.<XQ.F.Q.L.,X).2X<X^.f @ e -.;.&.<.1.-.. g 8Xg g.cX6X>XE u u H i 3 3 2 { ..C P.>X8XJ.j.).m.m.b.).@X.X>X",
"~.qX).J.x.G.K.P.>XI.x.n.^.P.I.4XQ.:XQ.^.P.:XOXs , ; y ;.<.<.1.-.f c.2XI.xXcXeXY.P K u H 3 2 p 2 y ` Z z.2X,XI.).J.z.z.m.6XH.:X>X",
"Q.0X<XM.~.<X%XK.J.J.D.J.).8X<X:Xz.L.^.I.I.G.^.a @ ; _ ..%.%...` g %X<XP.vXtXeXW d.K H H 2 2 3 3 H t }.yX<XI.P.>X~.K.h.Q.5X).^.^.",
"J.^.:XK./.,X^.W.m.T./.0XJ.:XL.T.E.|.%XA.I.M.>X< # & % / ( ( ( w ,X<X8X`.dX@X=XE d.i L I 2 3 3 3 T v K.3X0X<XN.I.,X:XG.L.^.5XJ.P.",
"%X%X'.<X4XQ..XS.!.Z.K.2X<X8XJ.n.T._./.%X%X*XL.1 @ ; % # % % e c <XU.(.G.G  XY.R ~ ~ E U 2 i 3 4 T S G.>X8XQ.G.P.L.P.P.I.I.9XP.~.",
"iXOXJ.4X_.I.@XG.m.z.OX>X2XqXT.4XK.j.%XQ.%X8XV ; @ % , % . ; _ v T.J.x.F.#XrXF.R T ~ ,.U i I i i ~ j ^.4X,XF.^.4X4XG.>X~.,X0X4X`.",
"5X).|.2XH.^.0XP.z.<X,X`.^.<Xb.:X+XK.K.H.E.Z ; % @ X , ; # r _ b R.T.P.^.4.rX>XE T ~ 0.I I I 3 T ^ ^.^.).).Q.J.~.,Xc.'.8X^.,X~.:X",
">XG.P.3XN.<X*X:XP.iX<XJ.~.^.K.K.&XqX-XD.K.f & % # 4 3 ; # , _ y ).b.M.^.9.pX~.R ! E 0.I I I i E Q ~.M.2XqX%XG.R.R.!.,X2X:XZ.x.:X",
":XP.^.,XP.-XOX^.,X4X2X^.Q.!.,X&X/.0X-X%X|.a # . 2 i # % & % _ r L.F.J.m.i.#Xb.~ T ~ ,.T T T I ,.m }.K.&X1XI.A._.).F.v.Q./.5X/.,X",
"~.~.8X5X-X~.I.~.H.F.`.H.F.8X8X<XuX5X+X@XC l . . < < + # % @ = / N Z.4XK.i.3Xj ! T E E T T T y | A *XL.Z.Z.E.S.Z.J.G.G.b.J.8XuX).",
"P.^.OX:X^.L.J.%XP.z.c.b.~.9X8XL.3X*X%X Xh s l l < o + . + i ,.O., V I.@XpXqX@X,.~ ~ I ~ T T T r B.A.M.Z.m.~./.~.K.<X^.M.N.>X5XP.",
"+X5X>X>X*X>X^.J.5XL.Y.G.^.I.J.+X@XP.I.>Xm.L.}.[.C.Z f s L ! Y q.3.x ,X1XC.2X}.4.E E R E R T ~ v C.k.K.^.N.N.J.~.>X:X.X.XJ.~.>XP.",
"/.).).<X<X4X:Xx.5XqX>XL.).Z.J.7XOXz.:XP.h.:X~.I.L.%X^.L.O ; * 2 Y J %X,XP.8XK.aX5.E R ~ R L ^ Y.J.P.Z..XJ.Z.G.4X,X:XXX+X6X,X^.8X",
"J.K.>XL.%XiX4XG.L.,XR.x.P.J.).x.).~.I.V.~.4XF.J.:X|.3X|.) | _ - & o L.:XE.).,X$Xq.E R E R P ~ ).4X5XW.2XJ.R.4XuX~.<X).~.5X,X>X^.",
"J.I.^.J.Q.2X:Xb.:X^.z.b.P.x.I.K.,X_.b.L.4X^.F.G.*XS.@Xo...` , ` _ O -X0X~.*XI.Y.q.R K R P J @X,X~.>XG.4X).H.).P.I.9X:XG.>XH.^.oX",
"'.<XT.G.G.A.P.I.4X^.l.4X-X5X:XP.^.H.h.J.J.K.,XJ.E.W.g | X.` ( ` _ f &X<X2X}.h f sXY L L J +XQ.<X^.Q.:XH.*XA.~.G.^.iX:X~.OXG.I.,X",
"`.9X4Xh.P.).b.>X:XA.I.).J.0X).j oX~.z.Z.D.k.L.}.f ].a # ` ) ; & # l f V C c l a v T J V x XXI.^.,XR.,X:X8X|.x.G.+X:X*Xv.8X*XJ.`.",
"^.:X8XQ.S.).~.5XI.L.~.T.z.,X~.C.^.`.P.<X~.G.h A c c < X X X # # < l l l s V g M.M.G.&X*X).I.P.<X`.J.J.2X).|.*X/.8X%XZ.D.:X~.S.R.",
"<XI.`.4X^.K.K.<XD.<X8XZ.j.K.~.7XR.*X8X<X).Z.OX5XP.}.[.h l V V A {.XXC. Xd K.P.^.<X).*XP.D.G.Z.>XOXP.F.:X^.~.`.!.P.<XA.G.T.G.G.V."
};
