/* XPM */
static char *result[] = {
/* columns rows colors chars-per-pixel */
"64 64 242 2 ",
"   c #515413",
".  c #4E6E19",
"X  c #6B6A16",
"o  c #706F17",
"O  c #777619",
"+  c #7D7D1A",
"@  c #62542D",
"#  c #576F25",
"$  c #717132",
"%  c #747841",
"&  c #807E1F",
"*  c #817F22",
"=  c #867E36",
"-  c #8B7D3E",
";  c #846E43",
":  c #8D7E41",
">  c #897548",
",  c #917C4B",
"<  c #078A02",
"1  c #148A05",
"2  c #1B8C05",
"3  c #089604",
"4  c #1C9206",
"5  c #189A05",
"6  c #238D07",
"7  c #278D08",
"8  c #229306",
"9  c #299407",
"0  c #239A07",
"q  c #249308",
"w  c #2C9409",
"e  c #249C08",
"r  c #2C9B0A",
"t  c #33950B",
"y  c #3A960D",
"u  c #349C0B",
"i  c #3B9C0D",
"p  c #328814",
"a  c #3B9812",
"s  c #1DA206",
"d  c #25A307",
"f  c #2CA309",
"g  c #2BAC09",
"h  c #34A30B",
"j  c #3CA30D",
"k  c #35AA0C",
"l  c #3CAB0D",
"z  c #27B509",
"x  c #34B10B",
"c  c #3BB20D",
"v  c #3CA513",
"b  c #41960F",
"n  c #419E0F",
"m  c #488818",
"M  c #58831B",
"N  c #449C11",
"B  c #479816",
"V  c #55981A",
"C  c #71901E",
"Z  c #42A40F",
"A  c #42AB0F",
"S  c #49AC0F",
"D  c #44B30F",
"F  c #45A310",
"G  c #4AA512",
"H  c #45AB11",
"J  c #4BAB12",
"K  c #4CA519",
"L  c #52A514",
"P  c #53AB14",
"I  c #58A719",
"U  c #45B210",
"Y  c #4CB312",
"T  c #44BA10",
"R  c #4CBA11",
"E  c #53B314",
"W  c #5BB616",
"Q  c #54BA14",
"!  c #66AF1B",
"~  c #538C29",
"^  c #568D29",
"/  c #589627",
"(  c #778925",
")  c #669924",
"_  c #759723",
"`  c #658437",
"'  c #7A843B",
"]  c #689430",
"[  c #54A52B",
"{  c #68A62E",
"}  c #4DC012",
"|  c #5BC416",
" . c #62C91C",
".. c #6C8C48",
"X. c #7A8648",
"o. c #7A9247",
"O. c #768954",
"+. c #7C9A5A",
"@. c #76AA49",
"#. c #7A9D63",
"$. c #75A26C",
"%. c #7BA168",
"&. c #75A676",
"*. c #84831B",
"=. c #82891A",
"-. c #8B8B1C",
";. c #90901C",
":. c #93931D",
">. c #9A9A1D",
",. c #A4A41E",
"<. c #A8A81F",
"1. c #898826",
"2. c #889724",
"3. c #979626",
"4. c #8B8A37",
"5. c #928D38",
"6. c #89913C",
"7. c #979337",
"8. c #9AA227",
"9. c #A6A621",
"0. c #A8A721",
"q. c #AAAA22",
"w. c #B5B524",
"e. c #A8A634",
"r. c #868343",
"t. c #858747",
"y. c #95874A",
"u. c #9A9645",
"i. c #9E964C",
"p. c #8B8F52",
"a. c #958352",
"s. c #978755",
"d. c #9A8A55",
"f. c #9D8D5A",
"g. c #889B59",
"h. c #969259",
"j. c #9C945D",
"k. c #A39455",
"l. c #A49A56",
"z. c #A2945E",
"x. c #A5995E",
"c. c #8AA75C",
"v. c #92A35F",
"b. c #A8A74A",
"n. c #ABA359",
"m. c #85986B",
"M. c #969965",
"N. c #949E76",
"B. c #A59660",
"V. c #A59961",
"C. c #AA9D63",
"Z. c #AD9F6B",
"A. c #A09F76",
"S. c #88A566",
"D. c #94A465",
"F. c #93AB64",
"G. c #96AB68",
"H. c #99AE6A",
"J. c #9DB26C",
"K. c #86A578",
"L. c #9CAB7B",
"P. c #ADA265",
"I. c #AEA269",
"U. c #A9A76A",
"Y. c #B0A565",
"T. c #B3A66B",
"R. c #B5A96D",
"E. c #B8AC6F",
"W. c #ABAC76",
"Q. c #B6AB70",
"!. c #B9AE75",
"~. c #BAAF79",
"^. c #A1B17D",
"/. c #BCB27B",
"(. c #BAB57A",
"). c #C1B57B",
"_. c #9BAC82",
"`. c #9BAB8A",
"'. c #99B386",
"]. c #9DB38C",
"[. c #99AB95",
"{. c #9AAD9A",
"}. c #87B490",
"|. c #9AB494",
" X c #97B896",
".X c #9AB39C",
"XX c #99BB9D",
"oX c #ACAF88",
"OX c #A2B483",
"+X c #A7B887",
"@X c #A5BC8B",
"#X c #B3BA86",
"$X c #BDBB81",
"%X c #BFBE88",
"&X c #A4BD98",
"*X c #9CB4A3",
"=X c #96BCA2",
"-X c #9BBCA4",
";X c #9DBDAB",
":X c #C0BD85",
">X c #C0BF8A",
",X c #9EC19B",
"<X c #A8C28E",
"1X c #A5C494",
"2X c #A3C39B",
"3X c #A9CA98",
"4X c #B7C89A",
"5X c #AFD09A",
"6X c #BCD79E",
"7X c #9BC2A4",
"8X c #96C5A9",
"9X c #9CC4AC",
"0X c #9CC9AD",
"qX c #9EC4B3",
"wX c #9CCAB3",
"eX c #9FCABA",
"rX c #A4CAA4",
"tX c #A7C8A6",
"yX c #A3CCAA",
"uX c #B8CAA4",
"iX c #ABD5A4",
"pX c #A9D4AB",
"aX c #B5D5A4",
"sX c #BAD7A5",
"dX c #B2D9A5",
"fX c #A3CCB4",
"gX c #A0CDBD",
"hX c #ACD5B7",
"jX c #A4D3BD",
"kX c #B6D6B8",
"lX c #C3C184",
"zX c #C2C28C",
"xX c #C4C591",
"cX c #C4D89D",
"vX c #C6CBA6",
"bX c #C6D7A5",
"nX c #C8D6B6",
"mX c #D2DCBC",
"MX c #A4D2C2",
"NX c #A2D3C4",
"BX c #A9D6C4",
"VX c #ACD9C6",
/* pixels */
"W Q 4 i S u . Z l h l 0 2 l h E H a Y A A e j Y h l a V ) _ =.2.( { ) 2.K f E H J t u r 4 w u W G F j 7 w 0 k r 9 w i i l 2 9 h ",
"H U A j t t n A r 2 u u 6 r k j N d r h S j 7 a B ) 2.1.3.9.q.0.<.w.q.9.2.2.! J a l k 4 Z F i E j h Z V i 9 u r u r 1 k h 9 9 2 ",
"R g k 8 w S c l i 3 9 G Z j h 8 5 s q r G n V 9.q.q.w.w.9.9.9.9.<.0.0.<.9.q.q.1.2.) N u F h l Z i q t R P u Z S F h < r 5 t 4 8 ",
"E u x 2 r D r B y 3 H Y J k A 4 f 1 t V _ C >.w.w.w.w.w.w.w.q.9.<.0.0.q.<.<.<.,.0.0.2.( _ 2 K F r j e H E l i J A r t k 1 Z A t ",
"i J E u A t t E u < G | F w j j Z 3 _ -.:.9.9.,.9.9.9.9.q.q.w.w.w.w.<.:.3.e.e.-.3.3.3.0.9.8.I E 4 Y h i E r w Q R d l e 5 u J i ",
"l j L h r w l Q A F j  .l 2 i B ) C :.<.9.9.9.q.9.9.9.9.q.9.q.q.w.q.e.4.Y.E.l.i.P.Y.B.5.b.3.u.o.U l L v F 9 2 W w 6 H t 2 g U d ",
"d u h n 8 x c G P y Y Y j J P V 3.>.9.q.9.9.9.9.9.9.9.9.9.9.9.q.e.i.T.R.R.R.Q.R.R.R.Q.Q.T.T.!.h.~ ^ V V B j u J u h J j 7 z l r ",
"0 D 9 A R T i Z n A S n y n ) _ ,.q.9.9.9.9.9.9.q.9.9.q.q.9.3.7.7.E.R.R.R.R.R.R.R.R.s.C.Q.R.E.z.j.E.h.# G Z u D c x j E J 5 f l ",
"y l j x | H G N r P J k H ) -.<.9.9.9.q.9.9.<.9.0.0.9.,.>.7.u.i.R.R.R.R.T.R.R.T.Z.z.f.C.R.R.R.T.E.R.Q.I.` N w N Z 7 5 D G 8 S N ",
"L h s 0 A G Z S d J G s I 2.q.9.9.9.9.9.9.9.<.<.0.,.3.:.:.3.C.Q.E.z., E.R.R.R.T.s.s., Y.R.R.T.T.R.R.E.E.Q.' r q Z D 9 y P S } Z ",
"c b 1 e t F u Z n r Z u ( >.9.9.9.9.9.9.q.<.,.<.0.:.;.:.-.1.i.Q.R.R.d.T.E.R.E.T.z.f.z.f.R.R.T.R.R.R.T.T.Q.E...3 H Q S y G l g h ",
"k j E l Z Z r F u x D F 2.<.9.9.9.9.,.,.:.3.b.b.:.:.:.:.5.Y.Q.R.P.; a.a.z.E.R.T.E.E.R.f.R.T.T.R.R.E.s.T.R.E.I.m P P E W J Z 2 r ",
"k i E U u J Y y 1 T l I >.<.<.<.,.9.b.b.1.U.>X~.1.;.:.1.P.R.T.R.C.B.f., T.R.R.Y.R.R.I.I.R.T.R.R.R.C.d.E.R.R.z.` / H J F F Z f 9 ",
"i Z G J i y j i t j m M.u.>.>.3.u.P.xXzX$XxX:XQ.Y.7.*.u.Y.R.T.E.R.R.E.Q.R.R.R.R.E.R.E.R.T.T.R.T.d.s.C.R.R.R.I.R.t.j t 9 G n g r ",
"Z A P A h H r F b t ` zXY.4.i.(.:X>X>XzX>X%XE.R.T.1.= Q.R.R.T.T.R.R.E.Q.T.C.B.p.j.j.P.T.R.Q.R.E.f.> E.R.R.T.Q.Q.7.M r d ! I h u ",
"h d u w 4 Z s v v . ` M.zXlXlX4X4XzXzX>X>X!.T.I.z.x.z.E.E.T.E.R.Q.T.V.h.M.OX@X4X4XxXH.$ > z.E.E.R.R.R.R.T.E.E.Q.7.*.C W P P h l ",
"J A 4 Z y Z D D B L.>X>X>X>X>X%XzXzXxX>X/.R.E.Z.; , B.!.Q.T.Q.B.j.M.OX4XsXbXbXsXcXcXcXg.@ @ ; Z.Q.R.R.T.R.R.Z.R.l.:.1.W R h w l ",
"c L i G t j A u o.zX:X>X>X>X>X>X%X$Xf., Q.E.R.R.!.f., > R.Q.C.g.OXsXsXsXsX6X6X6XcXcXcXcXp.$ @ @ j.R.T.R.E.T., C.i.*.=.C J u < j ",
"8 j P P i j c m (.lX%X%X>X:X>X>X>X%Xf.; T.R.T.R.R.f.T.f.R.M.L.4XsXaXaXaXaXaXdX6XcXcXcXcX4X6.4.$ $ k.R.R.B.f.f.Z.n.-.>._ G J t F ",
"t j j Y 4 t w m.zX%X%X%X:X>X>X%X%X%X~.T.T.R.R.R.R.; T.Q.h.OXsXaXaXdXdXdXdXdXdXdX6X6X6XcXcXv.t.y.> r.x.R.d.a.> C.b.& ;.;.V Y 0 i ",
"E u H S 6 R / %X>X%X%X%X4X(.:X>X>X/.T.R.R.I.R.R.R.T.T.h.3XsXaXiXdXpXpXpXpXhXhXhXhXhXkXkXkXuX% p.- - y.Z.P.C.R.s.P.1.;.;.1.L < 1 ",
"3 h | i A A M.zXlXlX>X%XR.4.Q.>X:XR.R.R.R.R.T.T.E.Q.h.2XkXhXjXjXNXNXNXNXNXNXNXNXNXNXBXhXkXnX$.% : : - d.R.E.Y.z.E.P.:.>.C l u 7 ",
"w 1 G 9 h ] %XlX4X).(.b.e.>.e.b.l.P.E.Z.T.R.R.T.P.h.,XVXNXNXNXMXgXeXjXeXeXeXgXNXNXNXNXVXhXVX|.X.t.: : : x.E.T.T.R.T.7.:.( G h E ",
"W < u r v g.zX%X).4X(.3.,.<.,.:.*.u.E., C.R.R.E.p.}.VXNXNXNXgXgXeXeXqXeXeXwXeXgXgXNXNXNXBXBXtXt.u.4.: : y.E.R.R.T.R.i.-.-.V k G ",
"A t 6 u { (.4X%X%X%X%Xe.<.0.>.:.;.= d.f.P.E.E.Z.N.VXNXNXgXgXgXqXqXqXqXqXqXqXqXfXeXgXNXNXNXhX6XF.6.r.: : - C.T.T.R.Q.i.+ -.V v n ",
"Z E f c ] #X).%X%XlXW.1.,.,.:.:.:.y.a.> B.R.T.M.eXNXNXNXgXgXqXqXqX;X;X;X;X;X;XqXfXgXeXMXhXdXkXm.X.t.: : - , T.R.R.R.T.3.-.G 9 2 ",
"Z Y J E m g.:X:X%X%XlXu.,.,.:.:.-.4.x.T.s.E.U.'.kXpXpXyX3XrX2X1X&X1X&X1X&X2XtX2X2X3XfXgXNXNXVX}.O.X.: : - , T.T.s.R.i.-.-._ x z ",
"i P N / W.(.:XlX$X%X%X%Xn.& ;.;.7.E.Q.Y.z.T.S.dXdXiX5X5X3X3X<X<X<X+X+X+X@X@X@X@X2X;XeXgXNXNXVX XO.O., 5.- - P.!.a.B.P.7.-.{ A j ",
"i N j ..lX).).lX%X$X%X$Xa.= ;.-.5.R.R.T.E.j.1XdXiXiX3X3X<X<X<X+X+X+X+XOX+X@X@X&X;X;XeXeXNXNXNX=XO.O.: : : : C.z., Z.V.i.*.] G j ",
"u r H D.lX<X<X(.$X$X$X$XZ., y.C.R.R.R.E.T.D.dXiXiX5X3X,X<X<X@X+XOXOXOXOXOXOX.X*X;X;XeXeXNXNXBX=XO.O.t.: : - k., s.$ f.l.5.] t 0 ",
"i f m W.).lX).lX$X$X$X$X:XR.R.T.T.T.R.E.B.1XdXiX5X3X3X<X<X@X'.OX^.^.OX^.`.{.*X*X;X;X;XeXgXNXVX;XO.O.t.: : - f.Q.!.E.Q.P.i.~ 9 e ",
"j Y ] (.lX).lX(.(.$X$X$XQ.T.R.R.R.T.T.x.M.dXpXiXrX3X1X<X<X'.^.^.^.OXOX`.[.{..X*X;X;XqXeXgXNXNX=XO.O.t.: - - d.E.R.R.Q.P.1.~ i d ",
"A Z o.lX).lX(.lX(.:X(.:XE.R.R.R.R.R.Q.j.^.dXiX3X2X1X&X@X@XOXOX^._.`.[.[.[.{.{.*X*X;X9XyXeXfXhX,X..o.r.4.: - d.R.R.R.E.z.$ L t 6 ",
"y G g.lXlX).<X(.lX(.:X).T.R.R.R.R.R.E.h.3XpXpXyXrX7X&X&X|.`.`.`._.`._.`._._.`.].@X1X&X,X7XyXpX3XO.X.r.: : : d.R.R.Y.T.P.j.[ l t ",
"Z y g.lX(.lX(.lX$X(.)./.R.T.I.E.R.R.R.N.hXNXMXeXfXqX;X*X*X{.`.`.^.L._.L._._.`.OX]. XXXrXrXyXpXK.o.t.r.: - - y.T.T.R.R.E.P./ j i ",
"G 2 U.lXlX(.lX(.).<X:XE.R.I.; I.R.R.V. XVXVXNXgXqX;X;X*X*X`._._._._._._._._.`.+X@X X,X,X7XpXpX%.X.t.r.: - - d.R.R.R.R.R.z.B n i ",
"H p W.%X(.<X).lXlX).<XE.E.T.z.Z.R.E.h.yXBXNXNXgXqXqX;X.X`._._.L._._.L._._._.`.].|. X,X,X9XyXyX#.o.X.r.: : : k.E.R.R.; R.h.h l Z ",
"U B W.:XlX(.lX).).lX).E.T.; ; ; s.E.M.hXhXjXgXfXfX;X-X|.|.`.`.`.`.`.`.`.`.[.|..X-X;XyXeXjXNXqXO.O.X.t.: : : x.s.a.B.z.E.p.3 r c ",
"h F # (.).lXlX).lX).).E.T.I.I.f.T.T.M.aXiXyX0XrXrX;X;X*X*X*X{.{.[.[.{.{.*X*X*X;X;XeXeXNXNXVX*XO.t.X.: : : : V.I.a., Q.!...2 9 J ",
"y ~ U.(.(.(.).<X(.lX!.R.T.R.E.E.E.Z.N.aXiXyXrXqXeXfX;X;X*X*X.X{.{.[.{.{.*X*X;X;XqXeXeXNXNXhXK.X.X.r.: : : : I.Q.z.a.: R.` r h G ",
"h ~ ).!./././././.z.; E.R.R.R.R.R.B.L.aXrXpXMXMXqXqXqX;X;X*X*X*X{.*X*X*X*X=X;X;X;X8X9XwX0XtXO.X.t.$ : : - y.R.f.s.R.d.P.m U q v ",
"U ~ /.!.!.!.~./.:Xf.> Z.R.T.T.R.E.z.^.uXpXBXNXMXgXfXqX;X;X;X*X.X{.{. X{. X|.XXXX7X8X0X0XtX|...X.r.4.- : - d.Q.f.B.E.!.h.i H h Y ",
"E ^ /.!.!.!.~.!.!.~.!.T.T.R.T.T.R.t.@XkXkXBXNXNXgX0X9X-X*X.X|.|.|.[.{. X X=X}.8X7X8X0XrXyX%.X.( O O = : - k.E.E.n.R.E.X.r F u Q ",
"L ` /.!.!.!.!.~.~.~.E.R.R.R.R.R.E.z.&XnXuXfXyXwX8X7X7XXXXXXX X X X X X X=X=X8X8X0XgXgXyX XO.$ X o X O = - x.z.1.-.7.l.^ 0 u y G ",
"j ] !.~.!.!.~.!.!.~.R.R.Q.T.R.R.Q.V.&XuXtXtXiX0X0X0X7X7X=XXXXX=X=X=X=X;XqXeXgXNXNXjX}.K.%.+.O.$ o X X X O 4.& =.+ X ' i u B n S ",
"l ~ R.~.!.!.!.!.!.~.E.R.R.R.T.R.Q.V.#XuXuXtXtXrX0XwX8X0X9XwXqXeXeXeXgXgXeXeXNX8X}.&.%.%.%.+.c.c.D.O.    X *.+ X V p t 2 l V . A ",
"h [ Z./.!.!.~.!.~.!.Q.R.Q.C.a.Y.Q.B.oXuXuXtXpXhXBXNXNXNXNXeXgXgXeXeXwXqXwX8X}.&.$.$.%.%.c.F.G.G.J.J.D.$ # . . B u 1 1 5 R e D G ",
"f P M.~.~.~.!.!.!.!.Q.T.B.z.z.I.R.C.oXmXnXnXkXkXBXBXNXNXNXNXgXwX8XqX8X8X}.&.&.&.$.S.S.F.F.H.J.J.F.%.[  .G v h J h t < d R l j l ",
"r N h.(.!.~.!.~.!.~.!.C.s., , R.R.Z._.mXnXnXnXkXBXBXhXgXfXwX9X9XqX8X}.&.&.&.&.%.S.F.G.J.J.H.c.{ v j w I Q J 7 u H F w i j E w u ",
"Z n o.).!.~.!.!.!.!.Q.Y.B.B.B.f.R.I.A.mXnXnXkXuXuXtXtXtX9X7X0X7X}.&.&.&.$.%.S.G.H.J.J.F.@.[ a J h 5 w H Y f 9 i i u a u u W i h ",
"| N ~ I./.!.!.!.~.~.!.R.E.E.Z.B.Q.R.z.nXvXvX4X4XuX&XtXtXtXtX}.&.&.$.%.%.S.G.J.J.F.@./ H U E Q k U 2 j T H w l U H w G k D Q D c ",
"E j i ^ h.~.~.!.!.!.!.R.R.R.I.R.Q.Q.s.#XvXvXuXuXuXuXuX&X'.%.#.%.#.$.S.H.J.G.c.[ a a r l H U E u A H h F l f w h H 3 c E n A h Z ",
"J w t ' h.C.R.!.!.!.).E.R.R.R.T.T.R.C.A.vXvXvXvXuX4X'.S.#.#.%.%.S.J.H.c.@.B l 5 F v k c k d y L i y 4 J W A w d f g H P Z 8 2 Z ",
"Z u l ' P.x.x.C.R./., f.R.Y.T.R.R.R.R.M.vXvXvX4X^.m.+.+.g.S.F.^.F.@.[ s 2 r s w t r l q 4 Z E Z j B y N L i w k k e 1 f k Y l H ",
"u h Y / j.x.x.x.x.B., f.R.R.R.R.Q.T.R.V.oXvX^.v.p.+.g.D.H.F.@.{ K 0 c q 5 D r u w i h q y k h l z l y 0 9 f 5 0 r r 7 4 r E | l ",
"u Z N G X.u.l.B.C.x.B.T.R.R.R.R.Y.y.Z.Q.h.M.g.g.M.F.F.@.[ v v H H 1 i H h Q l t A B 1 u Y g w j r 9 9 6 5 h k k t J l 6 6 G R t ",
"n E G P ( + u.x.x.x.x.C.R.R.R.I.1.& 5.R.C.> c.c.S.{ B w 5 r i l j 5 H L w P t 0 w Z w r Q A 5 t t < t j q 6 r h G n m m f h G y ",
"k l l ) + O & 4.z.C.x.C.Q.T.P.5.-.-.-.7.u.V...[ a F i i 6 r t j A u Z A u Q w h 8 E H j G y D s r u 8 m r 8 9 S H F m V T S j Y ",
"r t G u V { O + 5.x.C.C.C.4.1.-.:.:.:.:.1.5.h.B F Z P F i u i j G u u F g k l t 9 j A j G Z ! l J E r P r e Y | h G l h Y A S Z ",
"r i l r v @.4.O O * 5.5.& & ;.:.:.:.:.:.;.( 4.$ F e P Z l . y j i U D Q f S j 6 Y d 9 N H l P J f G w D c 0 k u j W F w G 0 Z b ",
"c Q v @.F.J.' X   X X ( & & & -.2.:.:.:.:.C   B d f i h A . i D c u Z D Q D r 8 E l 5 9 Z Y h H l u A 9 A 9 h w Z | Z u n t i S ",
"@.F.H.J.H.G.6.g.F.t.O X o o & & *.;.& ( . 1 a Z 6 c t 4 Q f s r J Z 6 u P G r 5 i 1 8 r j J l j A d A A E b 2 r G Z A 5 E A r x ",
"J.G.G.G.G.G.F.H.H.H.G.% '   X o O _ B / B w w G G A r 5 S i r 9 J Q h u 4 j 6 e 9 r J A l i u J U e w E l n A k E Z 8 d n j 0 d ",
"G.J.J.H.H.H.H.H.J.H.J.J.H.$ O X m K P J l 6 F R k S l e 9 G A L Q Q f j 1 t y j J l A u r w q G n y 0 n Z h c g r P 7 9 d 9 9 7 "
};
