/* XPM */
static char *result[] = {
/* columns rows colors chars-per-pixel */
"64 64 234 2 ",
"   c black",
".  c #010919",
"X  c #0C2E10",
"o  c #173817",
"O  c #233914",
"+  c #000429",
"@  c #00103D",
"#  c #1B302E",
"$  c #00233A",
"%  c #1B2D33",
"&  c #302E29",
"*  c #243438",
"=  c #184B04",
"-  c #114B0A",
";  c #185604",
":  c #2D570C",
">  c #0A6602",
",  c #176804",
"<  c #1B6C04",
"1  c #087902",
"2  c #1A7705",
"3  c #256807",
"4  c #236C05",
"5  c #247306",
"6  c #247B06",
"7  c #2A7C06",
"8  c #277408",
"9  c #2C7509",
"0  c #2D7C09",
"q  c #37790A",
"w  c #327C0A",
"e  c #366A10",
"r  c #295532",
"t  c #3A6A24",
"y  c #4E5413",
"u  c #6F5819",
"i  c #476F10",
"p  c #66690C",
"a  c #504E35",
"s  c #69552F",
"d  c #4E752F",
"f  c #736832",
"g  c #001144",
"h  c #002A44",
"j  c #00374B",
"k  c #193A48",
"l  c #263C46",
"z  c #313E40",
"x  c #003260",
"c  c #2C424C",
"v  c #38454C",
"b  c #2C4A55",
"n  c #364A54",
"m  c #004F74",
"M  c #3A5666",
"N  c #3B5D70",
"B  c #54564E",
"V  c #655B4A",
"C  c #6E6248",
"Z  c #71644D",
"A  c #78684B",
"S  c #6F744E",
"D  c #716A51",
"F  c #7A6C51",
"G  c #7E7052",
"H  c #415863",
"J  c #54646E",
"K  c #42687C",
"L  c #6C716A",
"P  c #8A752C",
"I  c #8B7547",
"U  c #887749",
"Y  c #8A7657",
"T  c #927D57",
"R  c #028402",
"E  c #018C02",
"W  c #0C8803",
"Q  c #138304",
"!  c #1B8405",
"~  c #148B04",
"^  c #1C8C05",
"/  c #0A9603",
"(  c #1C9306",
")  c #159804",
"_  c #1C9C06",
"`  c #238306",
"'  c #238C06",
"]  c #288A07",
"[  c #2C8309",
"{  c #258C08",
"}  c #2C8D09",
"|  c #33840B",
" . c #3B850C",
".. c #338C0B",
"X. c #3B8C0C",
"o. c #229306",
"O. c #299307",
"+. c #229B06",
"@. c #299B07",
"#. c #259408",
"$. c #2C9409",
"%. c #259B08",
"&. c #2C9B09",
"*. c #33950B",
"=. c #3B950D",
"-. c #349B0B",
";. c #3B9C0D",
":. c #3B9011",
">. c #01A002",
",. c #19A005",
"<. c #22A207",
"1. c #28AC07",
"2. c #25A308",
"3. c #2CA309",
"4. c #2CAC09",
"5. c #2EAF0A",
"6. c #34A30B",
"7. c #3CA30D",
"8. c #34AC0B",
"9. c #3CAB0D",
"0. c #34B10B",
"q. c #3BB20D",
"w. c #44880E",
"e. c #43950E",
"r. c #4D940C",
"t. c #429D0F",
"y. c #478614",
"u. c #508618",
"i. c #469412",
"p. c #449D10",
"a. c #4B9C12",
"s. c #539516",
"d. c #42A30F",
"f. c #43AB0F",
"g. c #49A90F",
"h. c #42B10E",
"j. c #40B90F",
"k. c #45A310",
"l. c #4BA412",
"z. c #45AB10",
"x. c #4BAB11",
"c. c #52A614",
"v. c #53AB14",
"b. c #5AAA15",
"n. c #45B310",
"m. c #4CB312",
"M. c #45B910",
"N. c #4BBA11",
"B. c #53B314",
"V. c #5AB415",
"C. c #54BA14",
"Z. c #5ABB16",
"A. c #61A818",
"S. c #62B618",
"D. c #558136",
"F. c #4EC113",
"G. c #5AC216",
"H. c #65C818",
"J. c #6A894F",
"K. c #7D8D66",
"L. c #B18D38",
"P. c #BB953A",
"I. c #C79B2C",
"U. c #C29A3A",
"Y. c #8E864F",
"T. c #998858",
"R. c #AD9353",
"E. c #8B8D6F",
"W. c #AC9765",
"Q. c #A7966E",
"!. c #AE966B",
"~. c #B1996E",
"^. c #B49C71",
"/. c #BAA569",
"(. c #BAA879",
"). c #C29D45",
"_. c #C7A94B",
"`. c #C7A85A",
"'. c #C7AD69",
"]. c #CBB369",
"[. c #CBB26D",
"{. c #D0B76D",
"}. c #D4B96F",
"|. c #CCB573",
" X c #D3BB75",
".X c #D4BB74",
"XX c #D4BD79",
"oX c #D8C077",
"OX c #DAC17A",
"+X c #2A6684",
"@X c #386B86",
"#X c #4A7289",
"$X c #4B748B",
"%X c #48758C",
"&X c #55788B",
"*X c #788D93",
"=X c #939689",
"-X c #96A19F",
";X c #ACA98B",
":X c #B7B599",
">X c #B3B3A4",
",X c #C9BB92",
"<X c #C2BEAC",
"1X c #D9C588",
"2X c #CEC399",
"3X c #DDCB93",
"4X c #D8C997",
"5X c #E1CE95",
"6X c #E0CE9A",
"7X c #E2D197",
"8X c #E3D29B",
"9X c #E8D598",
"0X c #CCC7AD",
"qX c #D3CAAA",
"wX c #DBD7B9",
"eX c #E5D6A4",
"rX c #E8D9A8",
"tX c #E3D9B8",
"yX c #EDE2B9",
"uX c #F2E6BB",
"iX c #D4D3C4",
"pX c #E4DEC4",
"aX c #E9E4CA",
"sX c #F4E9C3",
"dX c #F5ECCA",
"fX c #FBF0C9",
"gX c #F4EED2",
"hX c #FBF4D5",
"jX c #FDF7DA",
"kX c #FFF9DC",
"lX c #F7F6E7",
"zX c #FFFEE2",
"xX c #FBFBF3",
"cX c #FFFFFE",
/* pixels */
"Z.C.( ;.m.-.i k.9.6.z.+.! 9.6.V.z.=.B.z.f.%.9.n.6.7.$.6.k.&.7.x.l.B.+.m.6.1.B.z.m.-.-.@.( $.-.V.l.7.k.{ $.%.8.&.#.*.;.;.9.^ $.6.",
"z.z.f.7.*.*.p.k.$.( -.&.{ 2.8.7.k.<.@.6.z.6.$.*.*.6.;.%.z.9.-.;.p.l.$.B.8.8.m.f.=.7.8.o.d.l.;.B.;.6.k.s.-.#.-.&.-.$.~ 8.6.#.#.^ ",
"N.4.8.o.} x.9.q.;.E &.x.7.7.6.( ) <.#.@.l.t.' ;.&.x.x.;.6.l.;.o.&.;.p.x.-.t.g.+.+./ &.&.d.-.f.d.;.o.-.N.v.;.7.x.k.7.R &.#.&.( #.",
"B.-.0.^ @.n.3.i.=.>.x.x.c.7.q.o.3.~ $.*.l.7._ 8.q.@.;.=.$.x.-._ z.;.z.+.9.*.;.m.3.W } *.g.E f.z.&.7.+.x.B.9.;.x.n.%.*.8.W 7.x.*.",
";.x.B.-.f.*.-.B.;.E l.G.k.$.9.7.k./ 7.( ;.;._ 6.9.( e.O.~ f.x.o.d.6.l.) B.Z.7.C.{ h.6.9.z.) 8.v.( m.6.;.B.&.$.Z.N.2.;.%.+.-.x.;.",
"9.7.c.6.@.&.9.V.z.k.7.H.7.^ ;.;.c.{ x.;._ %.9.;.;.( l.;.M.x.7.~ $.-.7.{ b.H.N.z.x.C.h.4.9.+.&.x.z.q.c.7.p.&.^ B.$.{ z.-.~ 4.n.2.",
"2.-.6.t.o.0.q.l.v.;.x.m.;.x.v.$.z.$.&.z.#.3.N.m.z.#.x.H.N.d.-.4.*.7.k.6.d.c.x.k.7.C.m.( #.^ $.=.k.6.z.a.a.7.-.l.6.6.x.7.#.1.9.&.",
"+.h.O.f.m.j.;.d.p.7.q.p.;.;.b.$.q.8.&.n.{ 6.9.k.x.@.d.S.V.$.( <.q.x.k.n.6.-.7...7.C.c.l.d.7.q.9.k.k.6.i l.7.;.M.q.5.7.m.m._ 6.6.",
";.7.9.0.G.z.l.k.&.v.z.8.z.z.l.9.;.$.8.9.*.*.3.B.;.@.6.z.x.e.#.6.<.n.h.q.#.$.7.n.N.^ k.x.G.v.z.n.b.a.*.<.f.t.$.g.k.O.) m.l.o.x.p.",
"c.8._ +.z.l.d.f.4.x.c._ l.-.q.0.6.;.7.*.l.z.;.l.' ~ ;.z.m.;.6.x.$.B.k.6.@.l.k.C.G.+.&.k.B.C.d >X;Xt D.d =.f.&.%.z.z.#.=.v.f.F.7.",
"q.=.Q @.$.k.;.k.;.&.7.&.x.k.l.7.( o.k.l.M.C.$.*.6.+.h.x.l.X.#.x.l.x.k.7.B.z.Z.k.k.<.-.3 E.E.pXzXzXhXkXkXE.o.E / x.C.x.t.l.9.5.6.",
"9.7.m.9.k.k.@.a.-.8.n.7.;.n.n.k.{ ..k.l.6.v./ +.z.8.-.t E.:X:X;XJ.w n.z.C.8.B.( 7.2.6 0XxXzXzXjXkXzXkXlXaX: > W x.c.m.V.l.f.^ $.",
"8.-.b.n.;.x.m.*.~ h.z.r M [ 7.p.m.C.k.7.k.l.6.q.@.5 =XjXzXxXzXzXzXiXd k.8 J.E.K.J.< S jXjXjXjXkXkXjXkXkXjXzX>X] l.z.x.d.l.7.3.O.",
";.k.l.x.7.*.7.;.*.;.r %X$X- @.6.z.7.=.M.F.k.&.%.5 >XzXkXjXjXjXjXjXzXgX;XaXzXzXzXzXaXgXjXkXjXkXkXkXkXkXkXkXkXrXi f.9.-.O.l.t.4.@.",
"k.z.m.z.6.z.-.k.e.= #X%XK # 2 q.q.( ;.q t D.d < E.zXjXjXkXkXkXkXkXjXkXzXzXjXjXjXkXzXkXgXhXkXjXkXkXkXkXjXjXkXrX: k.;.3.2.A.b.6.6.",
"3.<.-.$.o.7.,.7.5 N &X$XK K N r $.< E.wXjXzXkXpXgXkXjXkXkXkXjXkXkXkXkXjXlXjXkXkXkXjXjXzXaXyXzXkXkXjXjXzXsXkXtX< k.#.q.B.b.c.9.7.",
"x.z.( z.*.7.z.7.b &X%X#X#X$X$X@XK.0XzXzXkXkXzXzXzXjXkXkXkXkXkXkXkXkXkXkXkXkXkXkXkXkXkXkXjX,X6XhXzXkXzXdXXX3XoXi *.o.l.V.m.6.$.9.",
"q.c.=.l.*.k.9.= K $X%X%X$X$X@X*XjXxXjXjXjXkXjXjXjXkXkXkXkXkXkXkXkXkXkXkXkXkXkXkXkXkXkXjXkXtX_. XyXkXeX X.X.XW.w 7.x.$.-.x.-.E 7.",
"o.7.v.v.;.7.0.X K #X#X#X$X$X+XpXzXjXkXkXkXkXkXkXkXkXjXkXkXkXkXkXkXkXkXkXkXkXkXkXkXkXkXkXkXhXeX4X|.XX[. XXXY., x.8.m.f.+.l.x.*.k.",
"*.7.7.m.( -.$.o M #X#X#X$X%X*XjXkXkXkXkXkXkXkXjXkXkXkXkXkXkXkXkXkXkXkXkXkXkXkXkXkXkXkXkXkXkXzXzXhXeX|.oX1X: ;.=.#.-.l.3.8.m.+.;.",
"m.;.x.z.{ N.n.- l K $X&X@X+X-XkXkXkXkXkXkXkXkXkXkXkXkXkXkXkXkXkXkXkXkXkXkXkXkXkXkXkXkXkXkXkXjXkXkXzXaX'.U =.C.O.d.#.;.6.^ f.W ~ ",
"E 4.Z.7.f.q.n.c.* c M m $X>XaXkXjXkXkXkXkXkXkXkXkXkXkXkXkXkXkXkXkXkXkXkXkXkXkXkXkXkXkXkXkXkXkXkXkXkXzXE.1 2.k.{ f.x.o.+.-.9.=.{ ",
"*.~ x.{ 6.q.q.v.3 * $ =XgXzXkXkXkXkXkXkXkXkXkXkXjXkXkXkXkXkXkXkXkXkXkXkXkXkXkXkXkXkXkXkXkXkXkXkXkXjXzXwX3 4.*.7.d.x.,.4.8.f.4.B.",
"Z.E ;.&.k.x.( ;.m.3 L zXzXkXkXkXkXkXkXkXkXkXkXkXkXkXkXkXkXkXkXkXkXkXkXkXkXkXkXkXkXkXkXkXkXkXkXkXkXjXkXfXp 3.&.q.;.&.-.C.8.*.8.l.",
"z.-.^ -.G.k.x.7.l.8 aXkXhXkXkXkXkXkXkXkXkXkXkXkXkXkXkXkXkXkXkXkXkXkXkXkXkXkXkXkXkXkXkXkXkXkXkXkXkXkXkXrXY.=.;.7.8.W $.v.d.-.7.t.",
"k.V.3.9.B.9.Z.z.V.=XzXjXkXkXkXkXkXkXkXkXkXkXkXkXkXkXkXkXkXkXkXkXkXkXkXkXkXkXkXkXkXkXkXjXkXkXkXkXkXkXrXoXR.*.' @.8.~ O.m.t.9.#.' ",
"k.m.x.B.;.;.k.k.| 0XzXkXkXkXkXkXkXkXkXkXkXkXkXkXkXkXkXkXkXkXkXkXkXkXkXkXkXkXkXkXkXkXkXkXkXkXkXkXjX5X].OXY.O.O.3.-.3.O.*.d.7.0.1.",
";.c.p.x.*.^ $.c.q aXzXkXkXkXkXkXkXkXkXkXkXkXkXkXkXkXkXkXkXkXkXkXkXjXkXkXkXkXkXkXjXzXkXhXkXkXkXkXkXhX8XoXf -.-.) &.*.M.7.7.H.z.7.",
";.a.7.2.~ ( ;.-.D.hXkXkXkXkXkXkXkXkXkXkXkXkXkXkXkXkXkXkXkXkXjXkXkXkXkXkXkXkXkXkXzXgXgXtXkXkXkXkXkXkXzX:X< c.O.o.6.7.F.B.x.d.l.;.",
"-.+.n.-.&.$.m.9.d hXkXkXkXkXkXkXkXkXkXkXkXkXkXkXkXkXkXkXkXkXzXxXjXsXkXkXkXjXzXhX-Xb J E.0XjXkXkXhXjXkX<X2 d.=.@.$.9.h.l.g.z.*.#.",
"7.3.;.x.x.#.7.7.: sXkXkXkXkXkXkXkXkXkXkXkXkXkXkXkXkXkXjXzXdXqX,X(.`.sXkXjXjXgXJ g %X%X+Xm J iXiX&X-XjXfXi d.q.5._ $.f.N.B.7.&.%.",
"6.x.B.z.k.+._ =.J.kXkXkXkXkXkXkXkXkXkXkXkXkXkXkXkXkXkXzXtX!.T.W.!.Y (.jXkXjX=X+ %X*X%X@X*X@X@X@X%Xx :XuXP z.8./ *.*.m.B.S.-.7.@.",
"9.d.c.;.8.-.) ) :XzXjXkXkXkXkXkXkXkXkXkXkXkXkXkXkXhXzXpXT ~.^.~.~.!.I ,XhXsX$ H $X#X#X$X$X$X$X$X&XN H 1XT.;.$.1 ;.7.x.-.b.l.*.o.",
";.x.f.k.&.O.E 1 aXzXjXkXkXkXjXkXkXkXkXkXkXkXkXkXjXlXgXT !.~.~.!.!.~.Y T XX;X@ H $X#X$X$X$X#X#X#X$XN z }.T.] ~ =._ 8.9.&.7.B.7.*.",
"t.=.z.6.;.z.W t gXkXkXkXkXkXkXkXkXjXkXkXkXkXkXkXjXzX<XI ^.~.~.~.~.!.Y I  X!.@ n #X#X$X$X#X$X#X$X$Xk B OXY.;.6.v.M.h.6.2.( x.7.;.",
"z./ 8.&.7.;.O.e sXzXkXkXkXkXkXkXjXzXkXkXkXkXjXjXkXjXT T.~.~.!.!.~.Q.f ;XXX3XY @ n N #X$X$X$X$X#XH g T.OXi $.3.l.C.4.f.#.$.l.7.;.",
"x.( &.{ @.&.d.5 1XuXjXkXkXkXkXkXjXkXkXkXkXkXjXsXzXpXA T.^.!.~.~.!.Y ;XwX,X5X9XT + h l n M M M n h l  XT.v.v.#.-.@.E h.d.n.8.7.z.",
"q.3.%.t.#.6.f.f.Q.8XeXkXkXkXkXkXkXkXkXkXjXjXjXrXkXwXI T.^.^.^.!.;X2XwXwX,X9X6XeX,XL $ h h h $ g B |.^.9 B.l.;.9.^ ( l.c.6./ &.0.",
"6.d.6.d.t.9.6.9.d 9XyXkXkXkXkXkXjXzXkXkXjXzXhX5XsX<Xs Y T.T.C :XtXaXwXqX1X7XuXhXzXfX2XT.C D T ^.XX/.: / v.g.-.6.$.7.x.v.$.^ $.x.",
"=.-.m.-.7.6.*.@.*.J.uXkXjXjXkXkXjXkXjXkXkXhXeX7X9X,X:Xa &   & aXlXxXlX2X3X8XhXzXjXkXjXuXrX1X|.'.T.Z 3 ~ 9.f.( 6.n.@.;.9.&.-.6.l.",
"6.,.Q -.+.+.7.O.O.6 Y.dXzXkXkXkXkXzXkXkXsX8X6X8X8X4XtXE.    >XcXcXcXpX,X1XrXkXjXkXjXkXzXkX5X'.V Z G a ;.>.,.1 -.C.2.~ *.-.n.o.;.",
"M.6.W 4.@.~ 7.n.{ p.; 4XyXgXjXjXjXhXsXeX5X8X8X8X8X3XwXxXiXiXcXcXlXwX4X6X5XdXzXjXkXzXzXsX1X.X'.F S G a [ %.W *.f.m.0.V.&.6.z.7.M.",
"V.m.~ 0.&.-.1.+.-.x.8 (.9X7XeXrXeX8X5X8X8X8X8X5X8X7XqXxXcXcXlXtXXX].XX}.rXzXzXzXjXsX6X{..XXX/.C G G V , =.*.c.g.*.q.V.*.&.k.-.Z.",
"c.y.o.d.q.z.3.&.k._ { Y.9X9X7X7X5X8X8X8X8X8X8X8X8X8X4XwXiX0X4X1X XXX X X1X3X6X3X,X{.{.XXXXXXT.Z F F Z 3 f.;.;.d.=.z.d.-.+.-.*.l.",
"d.g.;.l.-.t.[ 9.7.` -.p XX8X8X8X8X8X8X8X8X8X8X8X8X7X9X4X4X7X7X X X X X X X{.].}.}..XXX|.XX|.A F F F F e z.:.^ -.z.9.*.&.;.a.p.x.",
"9.9.6.-.^ f.{ O.e.=. .; L.[.5X5X8X8X5X8X8X8X5X8X8X8X6X7X9X6X X X X XXX XXX XXX X.X.X|.XX XT Z F A F F : a.l.O.R 6._ _ ~ 9.a.y.k.",
"6.Z.8.3.' } *.} e...] 1 f I.`.6X8X8X8X8X8X8X8X8X8X8X8X8X3X X X X X X X X X XXXXX.XXXXX|.T C F F F Y V X l.:.*.-.$.Q ~ _ N.@.k.c.",
"3.C.v.{ &.d.t.*.} o.` *.7 u ). XXX1X5X8X8X8X8X8X8X7X5X1X X.X X X X X X XXX[.[.[.}.{.R.s V Y F F F B k 3 e.| } p.*...R &.N.9.6.7.",
"&.7.k.=.8.t.;.+.^ ) *.t.} 3 u R.oX X XoX1X1X3X1X1XoX X{. X X XXX XXX X XXX).U.).U.P + & B Z Z V v b l e x.e.2 ..;.;.$.=.;.m.&.-.",
"d.d.q.x.f.@.q #.%.! ` y.w.r.. * ].oX|. X{. X X X X X X XXX X X X X X XXX'.P.L.P y + * % k l l k l b # | p.[ 7 *.*...=.*.-.V.;.6.",
"H.k.@.N.8.=.s.] ( 1  . .X.a.3 . a  XoXoX X X X|.oX.XoXXX X.X X X X XXX|.R.I a 3 q O # * c c l c l # 4 ;...` =.7.7.} p.-.z.B.n.q.",
"m.7.;.v.+.;.x.*.Q e.;.*.w  ., q X a T. XoXoXoXoX}.R.Y.|.XXXXXXXXXXXX[.).L.Y a , w 9 X X l l l * o 9 [ [ } #.] $.k.E z.x.7.z.3.k.",
"z.$.*.V.{ d.7.=.*.V.e.[ [ [ 4 8 w. .4 y I R.R.R.P y - f `.].[.[.'.`.U.L.U Z % > w 9 ` 8 ; = = 3 0 0 < X.a.=.{ ( %.2.f.c.k.( ' 7.",
";.;.d.z.&.m.p.;.7.7.t...' ^ |  .6 a.:.| q ; = ; , 9 7 ; u L.P.U.U.P.T.A B b # < 3 5 0 2 2 |  .| | q 0  .i...{ 8.6.o.~ 3.6.m.9.z.",
"6.6.m.n.h.6.;.6.o.] 7.^ ! e.e.w.e. .w s.r.w  .w 4  .5 7 . * s f C B B * k n o 8 3 9 5 , 4 7 6 [ ( ..0 ! ! @.( #.-.$.#.^ &.v.G.9.",
"-.k.p.l.d.;.$.;.*.2 R ! O.a.e.9 w.| 7  .6 > 4 q 5 w 4 2 ; # $ $ j k l z c l ; 8 0 9 > 5 ..6 2 | 2 ` 6 ! ~ -.8.6.*.l.9.{ { x.m.-.",
"p.B.l.l.f.l.7.*.m.*.w [ *...`  .i [ w | 1 0 0 8 5 3 , < > o # z v c c c % = 8 , 4 w 2 5 e...1 ] [ 1 [ ;.` ` &.7.l.7.y.u.2.6.x.=.",
"6.9.9.x.x.m.k.~ m.Z.z...-.{ ] f.X.1 X.7 > | 7 7 8 q 9 5 < 5 = o * % * o , w.4 6 < X.| ` X.w t.( { } ^ i $.' O.h.x.z.u.a.M.z.7.m.",
"&.*.l.;.d.H.z.O.=.f.2.^ *.$.;.! 7.O.| 7 $.;.2 2 w w w.q 8 0 0 0 9 3 4 | ^ [ } 8 2 | } ..X...A.*.k.l.%.c.@.+.n.G.6.x.9.6.x.f.x.;.",
"&.;.9.@.3.c.z.( d.;.~ ^ *.~ *...;.6.~ | ;...6 ` *.` w.| 7 e 0 [ | =.;.=.` X.| 2 e.#.2  .e.-.a.k.$.k.O.z.q._ 9.-.;.b.z.} l.@.d.t.",
"q.x.,.&.O.O.-.;.N.7.! n.h.m.d.*.;.o.R O.$...t.O.o.o.[ } ..e | =.*.[ ..=.l.;.` ! l.*.~ ] =.z.&.k.6.-.k.#.f.#.6.$.d.G.d.-.k.$.;.z.",
"q.V.n.E -.9.( l.d.#.;.9.3.C.6.i i.6.Q o.o.R *.e.` 6.} ! v.O.o.} d.=.` $.a.i.#.( *.Q { $.;.l.6.7.z.<.k.z.B.t.~ *.l.d.f.) B.f.&.q.",
"7.k.V.&.%.q.3.B.;.*.6.,.~ z.6.} 7.q.-.g.6.@.} g.k.d.$.~ d.t.$.{ g.m.-.-.^ -.' o.{ &.z.k.7.;.*.x.n.@.@.B.9.t.9.6.B.d.o.3.7.7.+.<.",
"v.6.9.n.6.=.*.x.$.x.B.#.E *.7.M.<.f.B.g.f.#.d.C.8.x.9.2.O.g.f.v.C.B.4.d.Q -.*.7.x.9.z.-.@.$.#.l.;.-.#.p.d.6.q.5.-.m.} $.<.$.$.{ "
};
