/* XPM */
static char *result[] = {
/* columns rows colors chars-per-pixel */
"64 64 256 2 ",
"   c #3DA901",
".  c #3DA501",
"X  c #3FA201",
"o  c #3AA300",
"O  c #4AB002",
"+  c #3FAD01",
"@  c #44B001",
"#  c #299F00",
"$  c #329B00",
"%  c #44AC01",
"&  c #41AA01",
"*  c #35AA00",
"=  c #2C9B00",
"-  c #54B304",
";  c #3AAC01",
":  c #2B9500",
">  c #3FB101",
",  c #209200",
"<  c #269900",
"1  c #35A400",
"2  c #129700",
"3  c #4EB303",
"4  c #379D00",
"5  c #31A800",
"6  c #37A600",
"7  c #31A300",
"8  c #24A100",
"9  c #319D00",
"0  c #2CA400",
"q  c #1F9600",
"w  c #36A000",
"e  c #0D9200",
"r  c #219C00",
"t  c #32A000",
"y  c #42A501",
"u  c #4AAB02",
"i  c #4EAC03",
"p  c #40B401",
"a  c #4BA702",
"s  c #018D00",
"d  c #38B000",
"f  c #44B401",
"g  c #4DB602",
"h  c #1A9500",
"j  c #169100",
"k  c #34B500",
"l  c #259600",
"z  c #21A400",
"x  c #279C00",
"c  c #45A302",
"v  c #32AD00",
"b  c #FF9C3E",
"n  c #27A500",
"m  c #139E00",
"M  c #3BB500",
"N  c #2DA000",
"B  c #209900",
"V  c #219F00",
"C  c #108D00",
"Z  c #22AA00",
"A  c #53B804",
"S  c #32B100",
"D  c #059800",
"F  c #048900",
"G  c #329700",
"H  c #8D4B12",
"J  c #2CA900",
"K  c #3C9D01",
"L  c #532D0F",
"P  c #690700",
"I  c #029200",
"U  c #2CAE00",
"Y  c #1AA100",
"T  c #28AA00",
"R  c #731E01",
"E  c #3C0300",
"W  c #9A4E12",
"Q  c #A34F12",
"!  c #3AA001",
"~  c #069F00",
"^  c #4DBB02",
"/  c #802600",
"(  c #792400",
")  c #A95715",
"_  c #852E03",
"`  c #600600",
"'  c #45A901",
"]  c #53AD04",
"[  c #1A9900",
"{  c #4E9904",
"}  c #911300",
"|  c #6A1E01",
" . c #8A2100",
".. c #5B0900",
"X. c #775932",
"o. c #4E0202",
"O. c #53BF04",
"+. c #CA8332",
"@. c #831701",
"#. c #982600",
"$. c #428E02",
"%. c #8F3E07",
"&. c #883F07",
"*. c #803B07",
"=. c #791200",
"-. c #78340A",
";. c #944310",
":. c #7C0300",
">. c #42B701",
",. c #742B02",
"<. c #6D1200",
"1. c #621400",
"2. c #BF7927",
"3. c #41BC01",
"4. c #450600",
"5. c #399601",
"6. c #4C0D00",
"7. c #624400",
"8. c #8D3301",
"9. c #4F4027",
"0. c #FFA642",
"q. c #A05917",
"w. c #695031",
"e. c #308C00",
"r. c #B03702",
"t. c #953000",
"y. c #5DBA06",
"u. c #1A9C00",
"i. c #B3601B",
"p. c #547C01",
"a. c #540600",
"s. c #1FB200",
"d. c #A0621F",
"f. c #29B200",
"g. c #49B902",
"h. c #5BC205",
"j. c #07A700",
"k. c #6D5939",
"l. c #439C03",
"z. c #6E5705",
"x. c #A46F31",
"c. c #902500",
"v. c #E8963B",
"b. c #4A2C0E",
"n. c #A77E23",
"m. c #4DC103",
"M. c #1D8C00",
"N. c #4D8C04",
"B. c #B47F30",
"V. c #D47526",
"C. c #AA6525",
"Z. c #5F3E21",
"A. c #3D6C07",
"S. c #769310",
"D. c #674C2A",
"F. c #FFAF47",
"G. c #593415",
"H. c #13A300",
"J. c #18A700",
"K. c #4F2706",
"L. c #3E5F00",
"P. c #BB6720",
"I. c #8D580F",
"U. c #419701",
"Y. c #267700",
"T. c #694425",
"R. c #696B03",
"E. c #CB7521",
"W. c #B27022",
"Q. c #C56920",
"!. c #DE8430",
"~. c #428401",
"^. c #6A3106",
"/. c #5EAB06",
"(. c #599B05",
"). c #544702",
"_. c #7D470D",
"`. c #BC580D",
"'. c #485C1F",
"]. c #816C45",
"[. c #A82B00",
"{. c #710200",
"}. c #848717",
"|. c #2B0502",
" X c #E8AC45",
".X c #578C02",
"XX c #9F2F00",
"oX c #A01600",
"OX c #434F01",
"+X c #63CB07",
"@X c #028100",
"#X c #387802",
"$X c #F89237",
"%X c #5E4F33",
"&X c #5E6B00",
"*X c #E88732",
"=X c #5D5B03",
"-X c #7E5E0A",
";X c #635535",
":X c #275E00",
">X c #BF620F",
",X c #3A3802",
"<X c #C14202",
"1X c #86672E",
"2X c #514B2F",
"3X c #D98F36",
"4X c #B1A54D",
"5X c #AB1300",
"6X c #7C6F09",
"7X c #4D5600",
"8X c #AF4B0B",
"9X c #7E4A26",
"0X c #3E1C03",
"qX c #3F3620",
"wX c #744101",
"eX c #BC8E4C",
"rX c #C68C3E",
"tX c #228301",
"yX c #4B781B",
"uX c #364A00",
"iX c #F59F3E",
"pX c #5C4A2B",
"aX c #AE922A",
"sX c #666026",
"dX c #4F6900",
"fX c #78B221",
"gX c #678B07",
"hX c #D9C77B",
"jX c #90680C",
"kX c #5A2204",
"lX c #CB9F5A",
"zX c #08010B",
"xX c #93A029",
"cX c #FFFD75",
"vX c #2E6B00",
"bX c #8D5829",
"nX c #F7F1B6",
"mX c #388000",
"MX c #657231",
"NX c #F9DB5B",
"BX c #332C1A",
"VX c #6A830C",
"CX c #B91B00",
"ZX c #4F3014",
"AX c #F3E59D",
"SX c #F3B75D",
"DX c #978207",
"FX c #D59346",
"GX c #FF6E0B",
"HX c #D02300",
"JX c #CDB344",
"KX c #92B63F",
"LX c #E77504",
"PX c #D35B0E",
"IX c #004119",
"UX c #AC887A",
/* pixels */
"0 q e v ! 4 < h 8 U m l M..   % - $ l e V # # O @ 3 J.J f H.A c i o 8 .Xn.G * $ ;XyXu.+ + 3 4 & - 0 ; C 2 ; 0 * y A.N f 7 e A y.",
"e B q n U s B = x t h $ {   0 w - t c   2 J * G ; g v S - l KXJXS.N.4XrXjXU.t = MX].yX@ 5 8 Y X 1 f.z j x N e < & K : G 1 % p % ",
"h e < 2 < F 7 X @ . t i ^ = j t   + # y r x I m m ' K = u X S.}.W.P.C.2.6Xi u r MX].'.$.V h H.~ 2 5 1 o % < I 4 d S @ , 2 S Z g.",
"= % 6 I U = V p @ w * A O m 1 V & + s @ < , s 8 g.! : ; m ' 9 + 2 R.W q.E.W.$.k '.].yXsXe., F Z 2 d 5 O O @ ~ G U.8 p r C S # 3 ",
"4 u # m r 1 z 3.O.l V g 4 J g 2 3 S I @ v 5 M , ^ 7 O.A D a e.6XxXxXW. XFXq.) W.IX].yXk.A.  D y 1 ; l y h.a s $ 3 x l + # A O ! ",
"J.M Z s x @ M.l - C B X w i ; > @ r m * Z p m.& % g.+X/.tX&.CX<X3XP.i.2.P.q.8XHX-.'.MXk.A.% j a 4 w C 5 +X6 c + A d < r 0 i 7 * ",
"8 * s.h 6 O n 7 u # 5 { {   T & G l e h D 3 O.o y i i }.H `.PX[.:.:.<.=._ ) ) c.} ).2X;X. x x & q 3 ' 7 f @ $ ] u k k 2 X N # Z ",
"5 n ~ O 3 1 f.k f 9 o u mX0 & y * d . . y i ^ 1 : ! 9 wX3X Xv.v.V.c.=./ =.;.W E P R 2Xe.p r U > , ] ! 4 X > + K o w 3.g.+ q p m ",
"l.% j a g ~ , . y l y ; 8 G c y.m.; - y.i . C ^ p . R.t.W.E.!.v.b Q.{. .:.P K.,./ <.A.: + U l = k ' & @ U @ ] V X a p +Xk * ; G ",
"6 m.@ i 5.[ > & u.z & X $ X 1 g 5 t 3 ] . 8 Y O.A DX<XH lXi.`.d.2.>X=. .W I._.) %.P L u = 6 K 0 k d 9 u j.a O Z + . a o 2 H.J i ",
"0 s.d a 5.@ ^ O ~ s [ 4 r = 1 8 2 % ! 9 $ t z DXLXGX#.) +.`.rXhXhX}  .t.2.d.).C.) _ p.>.c X j D 6 '   % = . r w y 9 X l r F U.k ",
"B C ; u - g ] i s @Xe t e e X $ I ! = . 3 r jXGXGX8X( PX`.>X+.FXeX .XX8.=.{.7.W i.P.S.J u y e., X p >.m.* M f.N c V y   d 3 6 v ",
"q z 6 y y % @ c 1 2 8 d 7 G ! ! j I u.p * , 8.5X#.c./ Q.V.Q.>X`. .r.#.<.;.;.H H q.q..X  * y ^ O X 5 0 7 f ; >.F G >.O $ p - 7 v ",
"V s.X a B = v > g D 2 , & ; ! $ G ' < . V 7 ).4.%.LX8X8.E.V.V.) `.<X) P.Q ;.H W z.M.& O.g.$   > 7 r , *   4 w = 9 o = t O a y $ ",
"N 0 /./.J.z 9   * V k v # f.g g 5.l.0 # J e.wX/ 8XLX[.o.9X<Xr.i.+.!.!.Q %.;.H p.: G o * i $ s M k [ Z n = X = U.y # @ 7 ; O +   ",
"* 5 ] - A p B . U : 0 Y m t y.h.] m p 5 n e 7.8.8X} UXnXlXI.-.H *.H H &.&._ 7.L.kXkXK.L.c 3 , * 6 = q s % K A.1 * j.. 2 < 9 H.n ",
"d q 5 ^ A c e l . O s C $ y @ > - s.e s N 5 .XR...C.hXlXB.x.*.-.-.-.,.R <./ R ..1...| | 7X1 M.: % . , j i = { + p >   : & e @ O ",
"o s # O # : @ * . d 5 + ; A D O f z @X= % J f @ hXSX>Xd.x.bX^.-.^.1.P <.=.r.t.o.1./ t.8._ $.% l.: J H.X { Y & i 7 +   : a G i d ",
"X < u & m + ^ U u B % 1 = & J A # t x ' K # ^ fXAXx.;.C.C.x._.,...P <.@.r.<Xr.1. .XXt.t.t.A.% a s s 2 : o l 7 5.l k * t i - 1 j ",
"w u.g v z y = h : w ! c Z 0 i & : & + k & X < . jXC.;.E.3XrXx.-.` <.P c.<Xr.r.XXXXt.t.t.t.z.a M p { Y.q 6 9 Z o j B x 2 f 6 7 $ ",
"s s % e # w , . q A % 6 s ~.> h 9 3 m.5 < ' 5.q -XC.P.*Xv.rXB._.` <.=.@.r.r.[.XX#.c. .c.#.q.z.7.7.1.L.- > ; T * t > 3.M.> @ 9 g ",
", $ ; = m 2 ' > j & Z s G -.C q - u @ 5 + X c p./ W V.*Xv.+.B.*.P ,.R } #.[.[.XX#.#.c.R P H _ =.( ( ( 7.e.& o + h.M M + w h.T I ",
"- T + U s.H.O   6 x Y K /.( 7.4 ] ; X     ~ 1 _.-.I.V.*Xv.+.B.d.:.{.P / }  .#.#.#.#.#. .a.H R <.( / _ _ | N.5 6 i M M 0 , u s : ",
"y S = J O.8 x 4 k < n > - wX[.Y & * f.X - S.2.*.-.mX+.$XiXB.x.B.eXeXc.{.=. .@.@. . .@.P _ &...<.( / / ,.( R dX@ ! 2 @ . r $ s y.",
"X . = y i l s J 1 o 6 < i &XHX.X% 1 D X aXb V.*.z.: (.+.v. XrX) AXnXnXlX@.:.:.@.=.=.` c.XXo.a.R  .( R | | ,./ =X. % . h.N C x & ",
"j [ * o O B s f.r j * O a Y.oX-X@ c V (.$X*XW W R.= m ] +. XSX+.eXnXAXeX2.+.t.:.@.P ` @.4.E ` (  ./ R | 6.1.| ( N.h.+ - S n - . ",
"s.f.    : B 8 x z r x 5 S e :.8.z w * }.$Xi.W H l.+ : 3.fXFXv.SX+.lXB.>X0.F.iX_.).7.a.E 4.o.` R ( ( R ( ,.,XK.R 7.% $ w ^ % g.X ",
"6 % h.6 6 3.: 8 D # = J Y D ^.oXU.; h n.E.W W mX# % x < h aX+.+.3XrXC.iX0.b 0.+./.z.` ..o.a.1.R ( R | / 8.#X3.p.).M.C = ' c i 4 ",
"9 a X u - m.; N h , u < F F 7X5XVX$ x W.q.H U.f - k T q h aX3X>X*X2.+.0.0.b b $X6X=XP P ` ` ..| | R ( _ 8.wX; A < K e I J.6 l.o ",
"[ G @ % a M v l V $ c m # l.7.:.=.6X6XH H {   O 7 n 7 q . }.3X>XE.W.v.F.0.b 0.!.-X&X1.{.=.=.1.1.4.1./ _ _ 8.p.* S g.l < # f u.t ",
"[ r * A ^ + l ~ s.d + $ y.gXW ,.;.v.2.H R.0 a w s , d X 1 p.q.2.+.P.iXF.F.F.iXP.I..Xp.&X=X7.| 6.4.| ( _ t.z.N.Z o 7 h u i 9 n t ",
"Y t = y.g >.: = ~ U @ X ] p.&.H q.d.H z.X F n.S.* j y ' O.-X8.d.C.!.0.F.F.F.V.) 6X{ $.a .X^.a.6.4.1.| 8.wX' 6 - $ m m . & 3 O 7 ",
"j = a ] = % 6 K @Xq ; ; x $.*.-.kX4./ R.VX-Xn.n.' X c % 6 H 8.W C.*X0.0.F.v.i.q.$.a l.7X1.6.4.6.6.4.R _ /.U X ] j.D : v 1 i . ; ",
": * - 6 8 S f.2 = F t f A I.H a.P } {.;.n.n.B.S.y % ; * p.W %.%.i.$X0.0.0.V.i.jXT w k ~.0X6.6.6.6.0X,.R.u t t J j.I < V y % % 9 ",
"w 1 u 2 Y n >.3.i 0 t u O.^.[.P =.P |.c.d.I.&Xt 3.T 2 , -X%.%._ P.b b 0.$X`.i.6XA 4 ' + F Y.~.Y.{ z &XgXZ o > ; = s & w N > t ! ",
"4 ! & q h > Z ^ a 5 l.c fXJX8X` |.P :.5X[.o...3 g M # { &.&.%./ Q.b b b *X8Xi.6X% t 4 v f.K . t K r ] 3 U @ . ] l h 1 1 8 J I ' ",
"  * v > . M F 8 9 }.hXJXNX Xi.oX} c.W _.| kXOXq ! . - n.&.*.%./ Q.b b b V.Q i.gX8 [ % x U ^ 9 , F % d T T 4 : g M X 8 V j r 2 @ ",
"k x D 7 i c 2 C ; jX X XB.d.<XCXH d.2.d.BX9.N.K , $ fXW.,.&.%.( Q.b b b Q.Q ) $.S N u l # k d Y = @ $ C s.O % d m.; v j X u.8 3.",
"O q e q 3 i 5 q 5 N.}.z. .R R {._.2.3X XZX9.A.u.N + xXq.-.*.%.( P.b b $X) ) I.M.l a c 9 ~ g.# e z K G u.H.g & > d n * l.X 5   J ",
"u 0 r # v 4 B p n e + L.} ^.b.0XG.E.NXcX1XBX'.d O.f aX%.*.*.&.( i.b b !.W i.&XO i - V 4 C 4 G o n   9 D 8 O a N r < J 6 x f N G ",
"w h p # < C z O.N @X~ D 7.G.L K.|.2.cXcX4XzX2X3 3 U.B.&.*.-.&.,.) b b Q.W Q $.m.3 @ s a y ' 9 f n ; d s < $ q , B 7 m Y # s m J ",
">.7   J # - S O > $ F [ C 9.G.L |.q.NXcX4XzX9.1XgX# n.&._.^.*.*.;.!.!.) ) I.5 Z   X H.O ^ & 7 t = f t C q [ 4 h p 5 F B T F 0 3.",
"O.9 X 8 < y.M < & ] 9 $ M.w.Z.L b.1.NXcX4XzX9.k.yX0 n.H &.=XR.8.;.W ;.Q ) wX: & = q 0 J.J O B o n T q * k 9 O 5 u.s.N 8 f.I @ - ",
"c $ = [ N X + 5.' X X > 0 sXD.L G.E 1X4X9.BX9.'.f [ aXd.*.{ L._ *.;.;.Q W _ 6.uX< K & D * w 5.i r J j.O % 8 D % # 8 ; M   2 $.a ",
"@ ! { N V l d O 7 m 4 % m.z.9Xb.L ZX|.zX9.qXqXsX. 8 xXW.R.2 ,X..*.W Q Q Q ;.| 4.L.w 1 , 3.9 $.N r T o X 4 0 C   M tXX x c 4 % & ",
"& ~.{ v e m ~ * s 8 g i # &Xr._ b.L ZXG.9.qXqXX.{ p KXeXY.g Y.E %.) Q Q Q ;.| a.vX; O i + + 5.n h Z O I # 5.    < h + e # * * d ",
"a & Y ^ ~ s F # v t % 3 I #X#.-.ZXL b.b.Z.qX9.;X$.O KX4X4 3 I vX&.q.Q Q Q _ P P :XK y # 1 z . Z M 5.9 5 D C ! c < $ , C V d A 0 ",
"* 1 v g.z @X: 7 i 9 K ' O.U.^.Z.L L L b.Z.9.9.].yXl.fX4X7 u X tXoXr.Q Q r.} ` a.,X' l o w * 9 s . i - v 8 B z r 9 y & n j 3 O.z ",
"# B g o $ q X + t M.% O.] : =XT.L L L b.Z.9.pX].1Xa { xXd 3 O % ,.5X5X5X} ` o.o.b.& M.o q   w Z ~ $ y [ O.U j.m J.6 & S $ & 1 r ",
"0 t y.N 9 $ $ w 7 q # g & < #Xw.G.L G.b.9XX.k.k.%XtX.XVX[ U q % dX1.....E a.P o.kX4 > 6 X 5 U H.~ r g 3 - < 2 Z r ~.n p O k . . ",
"M > O.f 0 y : > p ; q > >.6 tXw.G.L Z.Z.9XbXX.%XsXh S.VX[ C B j.=X} ..E o.@...o.` dX3   # . s x >.~ A - a X s m l (.w f.g.V X h.",
". n + o 3 >.~ > 0 x Z v   7   ].D.L T.Z.T.x.X.2X1XX }.DXK G j.z 7.} =.E ` <.E o...` #Xz V : : X   e O o S % & I 7 g w m ] ! 6 g ",
"o C 2   - > s.z Y q   y.i j $ sXX.ZXT.T.T.x.k.%Xw.1 }.2.; j D 6 ,.} <.E P K.L 4.a.a.:X: r k y.y < : 1 5 8 % +X= X + @ M.- = l % ",
"% S 3 v n I h v f.q $ a c G U.z.9XZ.T.D.D.bXX.%Xk.e gXE.~ B h U.@.@...o...E G.K.E E uXl.  M O.U % & Z Z 6 3 > > ! X f # +   t o ",
"  m.- r e , < x 2 m Z j h G ; p.oX-.D.D.w.X.X.;X%XC /.E.e.>.2 z.@.{.o.a.o.E 0X0X|.|.,XdX(.c g h.O A g [ Y k q Y 0 9 0 p >.3 5 0 ",
"= ^ u C j * % : J U T ~ j , q tXR T.pXw.w.w.X.w.1X(.h.}.(.4 A.:.%.bXG.o.E E 0X,X).OX:X#X(.6 > /.e.3 y.n 2 I F = . < $ o ' K o N ",
"$ ' 0 z $.~.o ' 7 8 , j 1 : F : ).X.D.w.k.w.X.X.x.U.- : a & OXd.x.X.2X2X:XvXmXe.~.U.5.~ a 4 # (.c B 4 1 l e.$ g r 6 a + u ' 3 X ",
"3 6 > 3.{ N.& % f q j r $.2 9 8 : ].pXw.k.;XX.1X}.x - t     OXX.K.` <.qXG ! X $ t N   F = X s K m.r u.* G & h.f C   f i u ; S 5 ",
"o % + 3 J S u 0 h.p Y V ] z g f * MX%Xk.k.;XX.x.S.; * Z y G BX6.:.@.5X .K ] X X 8 q >.* , 4 n d e   8 N j Z ; 5., > +X  $ y : V ",
"K   [ y l y - w # d m S p l u n O N.'.%X;X2XD.B.e.7 @ T ^ > ,X} } @.} CXI.a r > q h o > G 2 k   : 4 C < e s 7 y e & ] n r ; t V ",
"+ 4 < X t . h.. l 7 h + [ & # v % T { '.pXpXX.n.:XY.{ - p & vX@.} oXoXHXCXY.z J.8 @ G 8 8 F Y 6 N y f p p F o 3.9 G q B < H.O M ",
"k V + A D + & c B C K 3 & + J.> 6 w N.L.L.'.D.=XuXOX7XdXA.L.OXE 6.<.} oXE uX~.vX$.5.s u.h F J { #X5 A 8 S t h . u 2 v N F M - k ",
"Y m 7 o z 2   g J ; X d - < z M O = 9 d   % , M., Y.A.uXOXOX).K.4.E |.zXE ,X7X7Xp.#Xl 0 @ = k 5 e.J + e ~ 7 G 4 g T k u.8 A . 6 ",
", l B H.< M.O x s.k 0 o X [ G X c h l B 9 > v O 1 9 : @X$.e.N..Xp.L.7XuXvX$.U.t 3 X j d @ - + J.g.* l s 2 A O q O : G 5 >.; t 3 "
};
