/* XPM */
static char *result[] = {
/* columns rows colors chars-per-pixel */
"64 64 249 2 ",
"   c #107D0B",
".  c #3F7213",
"X  c #39583B",
"o  c #1E7A21",
"O  c #2E782A",
"+  c #3A7B2B",
"@  c #3C693C",
"#  c #3C7737",
"$  c #63531D",
"%  c #437714",
"&  c #494A38",
"*  c #485237",
"=  c #695C28",
"-  c #457A3B",
";  c #5A7131",
":  c #796C32",
">  c #7B7438",
",  c #383F42",
"<  c #3A4747",
"1  c #3A4B4E",
"2  c #3B5A4A",
"3  c #3C4D51",
"4  c #3E5454",
"5  c #3F5857",
"6  c #3B6543",
"7  c #3F6F4F",
"8  c #415A4B",
"9  c #405656",
"0  c #405956",
"q  c #425B5A",
"w  c #46674A",
"e  c #497747",
"r  c #4C7C43",
"t  c #567C44",
"y  c #537A4E",
"u  c #5D7D4D",
"i  c #476957",
"p  c #45645D",
"a  c #466A5C",
"s  c #586B5B",
"d  c #4A7555",
"f  c #49735D",
"g  c #4B7C5C",
"h  c #587756",
"j  c #6A7244",
"k  c #7A7A45",
"l  c #626E5B",
"z  c #65775A",
"x  c #6C7C5D",
"c  c #747B5A",
"v  c #535C60",
"b  c #476661",
"n  c #496D63",
"m  c #4C6D69",
"M  c #5C6A61",
"N  c #477661",
"B  c #4B7464",
"V  c #4D7C65",
"C  c #4D7568",
"Z  c #4D7B69",
"A  c #637563",
"S  c #657962",
"D  c #6A7A60",
"F  c #677669",
"G  c #747D69",
"H  c #85783A",
"J  c #867B47",
"K  c #807F53",
"L  c #078604",
"P  c #018C02",
"I  c #0C8B03",
"U  c #188707",
"Y  c #138B04",
"T  c #1C8D05",
"R  c #069603",
"E  c #149704",
"W  c #1C9306",
"Q  c #1C9C06",
"!  c #1B9212",
"~  c #238E06",
"^  c #248D08",
"/  c #2A8D09",
"(  c #348A0E",
")  c #229306",
"_  c #2A9407",
"`  c #229B07",
"'  c #299B07",
"]  c #249408",
"[  c #2B9409",
"{  c #249B08",
"}  c #2C9B09",
"|  c #33950B",
" . c #3B960D",
".. c #349C0B",
"X. c #3B9C0D",
"o. c #2C8918",
"O. c #398E15",
"+. c #2E9613",
"@. c #389915",
"#. c #01A002",
"$. c #19A205",
"%. c #22A307",
"&. c #26A209",
"*. c #2CA309",
"=. c #2BAB09",
"-. c #2AAE08",
";. c #34A30B",
":. c #3CA30D",
">. c #35AB0B",
",. c #3CAB0D",
"<. c #25B208",
"1. c #34B10B",
"2. c #3BB20D",
"3. c #3CA415",
"4. c #298523",
"5. c #378727",
"6. c #3D9525",
"7. c #3B8D3C",
"8. c #46990C",
"9. c #419D0F",
"0. c #488815",
"q. c #508618",
"w. c #439D11",
"e. c #4B9C13",
"r. c #499A16",
"t. c #439B1B",
"y. c #539818",
"u. c #42A40F",
"i. c #42AB0F",
"p. c #49A90F",
"a. c #42B20E",
"s. c #40B90F",
"d. c #44A310",
"f. c #4BA512",
"g. c #45AB10",
"h. c #4BAB11",
"j. c #49A71C",
"k. c #52A614",
"l. c #53AC14",
"z. c #58A71A",
"x. c #45B210",
"c. c #47B615",
"v. c #4CB312",
"b. c #4BBB11",
"n. c #53B314",
"m. c #5AB415",
"M. c #54BC14",
"N. c #5AB917",
"B. c #67AF17",
"V. c #458A2A",
"C. c #489827",
"Z. c #488739",
"A. c #54883C",
"S. c #479535",
"D. c #559B38",
"F. c #75943F",
"G. c #4DAB23",
"H. c #56A625",
"J. c #6EA332",
"K. c #68A438",
"L. c #74B73F",
"P. c #78B83F",
"I. c #7CBB3E",
"U. c #4EC113",
"Y. c #5CC116",
"T. c #58C816",
"R. c #63C917",
"E. c #3C8443",
"W. c #4A8648",
"Q. c #598749",
"!. c #4D9349",
"~. c #5B9548",
"^. c #549C4E",
"/. c #599E4E",
"(. c #4A8653",
"). c #4E8C54",
"_. c #4D845C",
"`. c #4E8B5B",
"'. c #578756",
"]. c #518C5B",
"[. c #4F9453",
"{. c #4F9850",
"}. c #529454",
"|. c #5A9656",
" X c #539A51",
".X c #5B9B51",
"XX c #549259",
"oX c #65884B",
"OX c #669849",
"+X c #759A47",
"@X c #70964F",
"#X c #688557",
"$X c #76845A",
"%X c #5FA747",
"&X c #5EAA47",
"*X c #55A34B",
"=X c #5BA44A",
"-X c #5CA848",
";X c #5DA451",
":X c #64AC45",
">X c #69AE44",
",X c #62A54A",
"<X c #64AA4A",
"1X c #68A849",
"2X c #74A648",
"3X c #67B145",
"4X c #6CB142",
"5X c #72B541",
"6X c #78B942",
"7X c #62A650",
"8X c #7AA755",
"9X c #4E8363",
"0X c #4F8663",
"qX c #518566",
"wX c #528A63",
"eX c #5A9666",
"rX c #6F9168",
"tX c #B1A11A",
"yX c #94942D",
"uX c #93A532",
"iX c #83BF3C",
"pX c #D3B40F",
"aX c #E3BA0C",
"sX c #86C03B",
"dX c #88C13B",
"fX c #CDCC1D",
"gX c #FBD401",
"hX c #8E8342",
"jX c #898545",
"kX c #968946",
"lX c #97914D",
"zX c #909254",
"xX c #A59141",
"cX c #91B54B",
"vX c #A0BF51",
"bX c #82977A",
"nX c #8BAF69",
"mX c #71968B",
"MX c #7FA291",
"NX c #888F8A",
"BX c #89AB97",
"VX c #A0A69C",
"CX c #9BB5A9",
"ZX c #A9ADA6",
"AX c #A6C693",
"SX c #99C7AE",
"DX c #ADCAB3",
"FX c #D2E8D0",
"GX c #D7EFD1",
/* pixels */
"N.n.W ;.p.;.% d.:.;.g.W T ,.;.m.f. .v.i.,.` ,.v.;.,.] :.@.} Z.(.W.).$.v.;.%.n.h.x.....' W [ ..n.f.d.u.^ | Q >.' ] | X.9.,.T _ ;.",
"p.x.p.:. .| 8.d.[ E ..} ^ &.>.X.u.%.*.:.p.:.[ | | ..u.4.G.W.<X;X<X:XW.D.>.>.v.i. .:.>.) u.d.X.n.:.;.d.y. .] X.} ..} Y >.*._ _ T ",
"b.=.>.W [ h.,.,.X.R } h.:.:.>.W E %.] ' f. .) X.} h.!./.4X5XsXL.iXsX6X].(.!.C.` ` E } } d...i.u.X.] | v.l...u.g.u.:.L [ ` [ T ) ",
"v...2.T } a.*.r. .R h.h.h.:.,.) *.Y [ | f.:.Q >.2.Z.<X4XsXI.sXsXiXsX6X1X5X3X[.j.} I / } h.P i.g.' X.%.h.n.,.X.h.i.} } >.I :.h...",
"9.h.n.;.i.[ } n. .P f.Y.f.[ ,.:.d.R u.W .. .W =.3.(.5XcXI.I.sXsXiXiXI.I.sX5X3X(./ g.>.,.p.E >.n.W b.;.X.n.' [ M.b.&.:.' ` ..h. .",
":.:.k...' | ,.m.i.f.,.R.:.T X.X.f.^ h.X.` &.,.9.@.7  XI.sXsXI.sXsXiXdXsX6X>X=XZ S.M.i.=.,.` } p.g.,.k.X.u.} T n._ ~ g.| Y =.s.*.",
"&.;...u.) 1.2.f.l. .h.x.;.f.l.[ g.} } g.' ' G.). X}.4XI.sXI.sXsXiXiXiXI.I.:X/.4X).N.v.W ) T [ X.g.;.g.y.y.:...h.;.;.h.:.] <.,.} ",
"` a._ i.v.s.:.9.X.i.x.w. .w.l.[ g.>.} x.^ 6.).<X3X5XsXsXsXsXsXsXdXiXI.L.,X,X^.:X}.(.z.f.u.:.,.,.d.d.*.% f.:...v.2.1.:.n.h.Q *.:.",
"| g.,.1.T.h.f.d.} l.h.>.h.u.f.2...[ >.,.5. X<XI.iXiXI.I.sXiXiXiXiXiXI.>X^.[.^.L..XN t.h.N.l.p.b.m.d.| *.i.d.| d.:./ E b.k.) h.9.",
"k.;.$.) d.f.:.g.*.h.f.$.h...i.1.;.X.:. .C..XL.sXiXiX6XiXI.iXsXiXiXiXsXiXP.=X4X>X[.).!.W.H.h.;.:.n.:.9. .9.u.*.` g.i.`  .k.i.U.u.",
"2. .Y } } w. .d.:.} u.| h.u.h.:.W ~ u.h.!.<X:X5XP.iXiX4XiXsXiXiXL.iXiXdXI.>X>X:X}.4X3XXXZ.X.h.Q } ,...} 9._ P R h.M.g. .f.,.-.;.",
":.,.v.,.d.d.' f...>.a.,.b.c.i.u./ ( u.g.6.`. X=X,XiXiX:XL.6XsXI.=X>X5X4X4X=XXX0XXX&X=XXXS...X.P  .9.T ) ..W   Y k.l.n.m.h.u.T [ ",
">.;.n.h. .h.b...Y v.i.x.:.;.;.9.h.G.(.(.W.].,X>X5XI.:X`. X5XsXI.=X^.%X-X=X_.Z ].&X=X3X X0X5.I ) 9.X. .;.,.} ) :.u.p.h.u.f.:.*._ ",
" .d.f.h.X...:. . .:. .,.,._ ' :.C.].;X|.qX=XI.dXiXiXiX.X0X4XiXI.L.>X3X3X}.Z 9X^.-X=X Xg b 7 V. . .u.i.u.[ ) W b.i.,..._ f.9.-.' ",
"u.g.v.g.;.g.| w. .| d.| *.=._ S.|.6XI.:X9X.X>XI.iXP.6X|.V .X=X:X:X{.=X^.).0X X>X^. XXXn 5 0 B W.n.n.>.} >.2.' ,.p. .*.&.B.z.;...",
";.%...[ ) u.$.,.:..  .h.I ] | W.7X4X5X=X9X|.=X5XL.:X^.`.`.`.0X`.).[. X=X<X=X=X=X*X[.N B p n ).9XH.m...` ` ;.| >.d.` a.n.l.k.:.,.",
"h.g.W u.| d.i.a.g.y. .l.) / t._.:X3XL.6X/.%X^./.=X X=X*X*X{.B Z C C /.:X/.4X^.=X4X.Xb 9 a ).].Z e g.d.@.~ I h.u.[ T e.m.b.;.[ ,.",
"2.f. .f.| u.i.;.h.u.{ y.w.%.@.}.<X^.4XI.>X[./.:X&XK.3X*X Xg a q q 9 f {.{.*X X X<X0Xb f `.}.].Z n I n.i.i.:.,.u.,.p.| ..h...P :.",
"] :.l.l.X.:.2._ O.:.| :.| W 7.,XiXL.=X=X=X*X/.K.:X:X>X^.).a B b B i g ^.:X[.9X9X_.B a }.{.[._.b w ;.g...:.h._ h.>.M.i.` u.k.| u.",
" .;.,.v.) } [ ~ w.=...,.o.!.:XP.iXiX>X*X<X4X4X*X:X{.*X/.&X^.0X_. X=X=XL.I.,Xg Z n q q g `.Z C m @ f.;.=.w.:.X. .] | d.&.>.n.` X.",
"n...h.i.~ b.a...:.*.,.i.).6XiX6XiXiXiXiXI.sX5X X{.^.>X3X3X&X=X>XI.4XiXiXiX>Xg p 5 q B V V V m m 7 C.;.R :.p.m.[ u._ X.;.W f.I I ",
"P >.Y.X.i.2.s.Y.g.:.g.@.g =X3XI.iXiXiXiXsXiX4X*X X{.*X>X3X:X5X6XdXiXI.I.=X Xa 5 g [.}.!._.C C C C X i. .P *.u.^ i.h.) Q } ,.| _ ",
"| Y h.] ;.2.a.l.,.:.h.E.wX3X4XsXiXI.iXiXsXiXiX4X=X).:X>X/.=XiXI.4X5XiX:X>X%Xg g [.:X:X^.).`._._.d 2 +.m.X.&.| ,.u.h.` -.>.i.;.n.",
"N.P  .} i.h.W X.g.:. .E.wX}.:XP.>X5XiXI.I.iXiX:X[.V ].{.)./.5X=X*X=X>X*X{.^. X&X^.:X>X:X{.{.{.>X*X9X@ l.x.*.} 2. .} *.M.;...>.f.",
"u...~ ..Y.d.g.u.f.:.;.6.0X9X/.=X}.,X5X,X>XL.I.L.(.9X9XZ ].,X>X=X*X^.,X/.!.[.:X:X-X&X X*X^.{.%X3X XV w e.| ,.X.:.>.I [ k.u...u.8.",
"u.m.*.2.n.g.N.a.N.n.,.C..X.X{.^.`.V 0X{.*X/.>X/. X[.[.9X<X>X5X4X3X-XI.I.<X=X4X3X|.).^.3X:X^.-X^.XX9Xb V.h.,.^ } >.Y ' p.:.,._ ) ",
"9.v.h.n.X. .h.w.d.h.5.[.5XI.>X3X=XXXZ ,XiX=X^./.4X%X[.B 9X5XL.L.dX>X=X:XL.<X>X/.9XZ ).L.:X:X:X*X`.C q # ;...' &.} *._ | d.u.=.-.",
"X.k.f.u.| T [ f.n.G._.*XI.I.L.4X3X X9X.X,XL.>X>X3X5X].m C ,X=XL.I.3X[.`./.].).Z Z V [.>X4X3X*X*X X`.n q + ....E ..| b.:.:.Y.g.:.",
":.e.,.&.Y W :...n.W.;X4X4X4X3XL.>X=X,X=XP.I.<XI.>XI.2XC Z V _.:X7X9XZ C V 9XC C m ].{.=X3X=X*X X{.{.V q @ f./ ] ..i.U.n.h.u.f.X.",
"..` a...} [ v.,.,.W.XX=X<X:X5XdX5XL.L. X,X|.>XdX|.P.2X`.C C V wXDXDXeXMXmXC m B ).^.=X>X,X.X:X}.0X_.b q O f. .' [ >.i.f.h.i. .` ",
"X.*.X.h.k.) :.:.=.t.B _.:X}.1X5X-XI.I.0XV Z /..X`.=X/.:X X_.V BXGXGX8XeXnXs B /.L.=X>X>X>X}.}.[.{.C 0 0 6 C.a.-.Q [ i.b.m.,.} ) ",
":.v.l.i.u.` Q | m.@.2 V }.0X^.*X*XP.1XV `.=X=X=X>X4X>X4X:X Xq @XAXSX8XAX8Xn [.*X:X^.>X X9X`.[.9X0XZ q 0 q V.>.#.| | c.n.B.....&.",
",.u.l.X.>.| E $.t.r ~.*X[.0X).`.9X X{.{.,X:X=X5X4X4X5X3X<Xg 9 d 8XmXSXGXSXu {.*X*X^.^.{.).9Xn p )._.5 q q # [   X.;.h.| l.k.| ~ ",
" .f.g.d.' ` R $.# ;X3X*X[.^.0X9XV [.*X3XdXL.>X4X5X5X>X^._.q q y h 6 DXFXBXr :X%X5X5X).f `.i 1 g [.wXn q 0 0 o | Q >.,.*.:.n.,.| ",
"X...x.;.:.d.I ( f  X>X:X-X-X[.^./.*X^.>XL.:X4XI.5X>XiX>X_.n _.B C V Q.g OX=XL.>XI.I.9Xq q 4 a 0X{.`.b n b 5 O.l.b.x.;.` ` h.:...",
"h.I ;.} :.:.` O B 4X3X3X4X3X-X-X-X:X&X^./.>X>XI.5X^.4X>X,X9X[.]._.&X1X/.4X3XL.L.3X.Xq a (.`.[.)._.a p V B 5 o.f.b.*.a._ _ u.9.9.",
"x.W } ~ { *.w.d.i  X X4X>XL.=X3X*X:X=X`.:X>X<X:X^.[.{.{.[.^.>X>X=X4XL.>X4X5XI.I.^.[.N g {.0X)._.q p Z n 0 - ' ..} P a.u.i.>.:.i.",
"b.' ) d.] ;.,.b.5.i  X4X X=X{.^.*X XZ m ].*X4X-X).`././.^.L.iX5X3X:X4XL.*X,X5X=X{.*X_.p _.9X9Xa q V 9Xq 4 C. .,.~ W d.k.:.R } 2.",
";.u.:.:.r.,.*.,.d.0 wX_.a _.*X>X=X*X).B n [.=X).Z Z /.=X%XL.dX3XL./.>XiX}. X*X{.*X Xg 1 4 Z V B V B a q 0 V.} ;._ ;.h.n.[ W _ h.",
" ...x...:.>.[ } ;.- Z n a /.=X=X>X>X/.Z b Z V 9Xn Z B ).%X3XL.=X:X^.^./.{.:X*X{.a p 3 < 1 a 9X[.[.f 5 9 4 t.T ;.s.[  .,...[ ;.f.",
">.Q Y | %.Q ;.[ / o.i Z 9X;X>X3X4X:X:X/.i q n Z b b b '.:X;X>X X!.%X3X=X:X-X Xf 3 3 1 4 b 5 V [.C q 4 4 q o L ..M.&.T [ ..x.] :.",
"b.;.L >._ T :.a.[ O.N 9XV }.>XL.4X4X>X/.).a 0 q 0 0 p B XXV 0XV ].-XXX].=X*Xg a ).0X4 n 9Xa V {._.q 0 4 2 L ..i.h.2.n.} >.u.;.v.",
"n.p.W 1.} ..<.` ;.h.# f _.:X4X4X3X:X>X%X{.[.B i a g g 4 B C Z a B 9XB Z 9X_.p B {.`.5 i V 9X0X[._.q 4 4 2  .l.f.[ 2.m.| } w...N.",
"k.0.W u.a.i.*...g.W [ 0 0X^.=X-X:X-X{.^.:X>X:X=X=X X`.9 1 3 4 b p p q p B B n qX[._.p ).0X[.).C q 0 4 4 8 t.u.d.9.p.u...' ....f.",
"i.p.9.d.} :./ ,.d.T ..7 qXwXg V XXXX/.3X3XL.4X>X-X=XB 4 < < 9 b m n C a a b _.[.9Xa i [.`.XX`.n 9 9 4 2 @ w.W :.h.,.[ ' ..e.w.h.",
",.:.:...~ p.) | u.d.O...O f Z m m `.K.L.-X:X>X:X X}.g 9 5 9 p V B Z ].Z 9X0X{.).p n b V V B n 5 4 @ 2 5.h.n.&.P ,.Q %.W ,.e.0.d.",
";.n.,.' ~ [ X.[ f.w.B.J.2Xe N Z b *X:X>X=X/.>X:X^._.9XV 9Xb V }.V g }._.}.V ).f 0 a b q 0 4 3 4 2 ;.| E n.g...:.} I Y Q b.` d.k.",
"*.M.v./ *.u.u.X.+.|.vXcXcX@XW.6 6  X^./.%X{.>X^.{._.b (.XX9X}.}.C C B ].).p i 4 5 4 0 0 5 4 5 2 y...:.M.h.9...h.;. .L ' b.,.:.:.",
"} :.u. .1.u.,.%.Q S.nXcX8X#X5.$.*.e `.i ).[. Xg f q i ).{.[.[._.C C C a p 0 9 9 4 3 9 9 1 @ ; pXw.;.} k.M.h.^ ..g.d.[  .u.n.} } ",
"u.u.2.h.a.;.0._ =.6.Q.'.y d +.E &.3.5.Z.i 5 a 9 9 a V (.a [._.q q 0 p 9 0 0 0 4 1 < < @ tXk.tXgXuX! | u.n.} [ ;.X...@.....m...;.",
"N.u.*.v.1.X.y.[ Q U t.C.H.m.*.x.t.~.~.~.W.V.9 w 4 q f 3 4 i 0 9 4 1 4 9 0 q 9 8 * X O w.aXfXyXgX+X4.:.b.g.[ ,.x.g.| d.;.p.M.a.a.",
"n.,.X.l.` :.n.;.Y g.g.2.u.h.W.K.C.OX~.'.W.D.t +Xi X 4 5 1 3 0 0 0 0 , < 4 9 8 - - Z.Q.oXB.aXyXtXy Z.D.:.,.*.} ;.g.R s.n.u.i.;.u.",
"h.[ | l.^ h.p.u...R.h.} ;.t.OX~.oXoXr OX~.@Xi A A oXw < < 8 9 9 9 4 & $ 8 w Q.r t Q.h S c xX> yXpXuXQ.y.N.g.[ ` *.-.a.l.u.) T u.",
":.:.i.i.| v.u.X.g.x.l.:.=.3.J.'.w 2XW.@Xd x S M l x u t : = & & & & $ : ; r - - - t $Xc J z Q.pXaXOX~.S.l. .[ 1.>.] Y *.>.v.,.g.",
"..;.n.v.s.;.X.;.{ [ 2.` ] l.D.+XQ.OXw s G s D x h A D x H H : H : = : : ; OXu G h t t h kXxXK xXuXy y 5.) *.` ` ..} [ T } n.U.g.",
"..u.9.d.:.X.[ u...U R W ;.:XoXw OX|.'.$Xl s z x M D $X$XJ H hXlXH : : H j oXoXz Q.u x l G J c yX+XQ.5.^ Q *.>.;.| h.:.~ ^ f.b...",
"w.n.f.f.i.f.u.} v.@.( / d.OXQ.2XoX+Xx zXh l M A $XA F jXkXkXhXxXH H H H > Q.- - - u h h x x #X+XoXo ( ,.] ~ ' :.f.X.0.q.*.;.f...",
">.>.i.h.h.v.u.T v.N.d. .,.6.OX+Xy Q.h M M $Xv A D A F kXH lXkXkXyXH J : hXoXr t e oX'.z x l x y 2XV.W 0.} ~ [ a.h.d.q.e.c.a.:.n.",
"}  .d. .u.R.i.[  .i.&.W ..;.Q.~.Q.Q.+Xl M A x D A c H : J lXhXkXjXJ J : : H $Xu e NXVXrXF mXz C.j.l.*.k.' ` c.Y.;.f.,.;.v.i.f.:.",
"} ..i.' *.k.u.W u.:.Y W } U J.OXe y - $XS S D M F D l j zXzX: J lX: k kXj oXu e z VXZXmXA nXF.d.*.h._ c.,.` ,...:.m.d.[ d._ :.8.",
"2.h.$.} ' )  .X.c.u.U a.x.x.d.6.2Xy OX@XA x x $XD x A $XlXH = G jX= t > > oXr - z G mXF NXbXS.d.:.;.d.' p.) ;.[ u.Y.u.;.u.|  .i.",
"2.m.g.L ..,.W h.u._ ..,.} N.;.% t.@.o o.- 5.Z.'.A D S $Xk z F rXk c e t c NXF - u c F VXZXCX,X3.i.%.,.d.n.9.T [ f.u.u.E n.i.} 2.",
"3.d.M.} ` ,.;.v. .X.;.Q T g.;.( 3.2...h.;.} ( Q.h D A F D A F G c K h t t z l x l s h rXDXSX+ h.a.' } n.,.9.,.;.n.i.) *.:.X.` %.",
"l.;.,.x.:.| | h./ v.M.) P [ ;.v.%.g.l.g.,.] d.H.S.~.#XW.'.g ).S #X'.Z.A.O V.V.z.H.C.j.Z.+ | ^ f.u.@.] w.u.;.2.1.} h./ [ %.' [ / "
};
